<svg id="svg" version="1.1" xmlns="http://www.w3.org/2000/svg" xmlns:xlink="http://www.w3.org/1999/xlink" width="400" height="146.03174603174602" viewBox="0, 0, 400,146.03174603174602"><g id="svgg"><path id="path0" d="M191.606 16.879 C 191.321 17.088,191.300 17.313,191.362 19.512 C 191.437 22.166,191.574 22.623,192.342 22.777 L 192.833 22.875 192.833 24.519 L 192.833 26.164 183.375 26.207 L 173.917 26.250 173.917 32.500 L 173.917 38.750 196.875 38.792 L 219.833 38.835 219.833 41.251 L 219.833 43.667 198.679 43.667 C 179.669 43.667,177.497 43.693,177.262 43.929 C 176.863 44.328,176.865 57.746,177.264 57.899 C 177.409 57.954,187.046 58.000,198.680 58.000 L 219.833 58.000 219.833 60.333 L 219.833 62.665 198.458 62.708 L 177.083 62.750 177.040 69.042 L 176.996 75.333 198.415 75.333 L 219.833 75.333 219.833 79.333 L 219.833 83.332 196.875 83.374 L 173.917 83.417 173.917 89.667 L 173.917 95.917 194.542 95.959 L 215.167 96.001 215.167 96.834 L 215.167 97.667 214.333 97.667 L 213.500 97.667 213.500 98.417 L 213.500 99.167 212.766 99.167 C 212.119 99.167,212.012 99.221,211.858 99.625 C 211.502 100.556,211.106 100.833,210.132 100.833 C 209.091 100.833,208.833 101.022,208.833 101.783 C 208.833 102.298,208.797 102.333,208.264 102.333 C 207.314 102.333,207.167 102.459,207.167 103.268 L 207.167 104.000 205.783 104.000 C 204.242 104.000,204.000 104.126,204.000 104.926 L 204.000 105.452 202.641 105.565 C 201.003 105.702,201.027 105.689,200.896 106.510 L 200.791 107.167 199.429 107.167 C 197.901 107.167,197.667 107.293,197.667 108.117 L 197.667 108.667 196.292 108.674 C 193.828 108.687,193.000 109.006,193.000 109.944 C 193.000 110.320,192.973 110.325,190.625 110.370 L 188.250 110.417 188.199 111.125 L 188.148 111.833 183.095 111.833 C 177.701 111.833,177.000 111.887,177.000 112.303 C 177.000 112.668,176.168 113.500,175.802 113.500 C 175.589 113.500,175.494 113.635,175.478 113.958 C 175.466 114.210,175.410 115.279,175.353 116.333 L 175.250 118.250 174.583 118.333 L 173.917 118.417 173.870 120.708 L 173.824 123.000 173.287 123.003 C 172.992 123.004,172.667 123.060,172.565 123.128 C 172.319 123.290,172.119 125.725,172.262 126.807 L 172.376 127.667 176.858 127.667 L 181.340 127.667 182.023 127.236 C 182.398 126.999,182.743 126.661,182.789 126.486 C 182.868 126.183,183.070 126.167,186.697 126.167 C 190.949 126.167,191.086 126.137,191.249 125.173 L 191.361 124.507 194.388 124.462 L 197.415 124.417 197.565 123.708 L 197.714 123.000 199.701 123.000 C 202.061 123.000,202.333 122.898,202.333 122.012 L 202.333 121.368 204.348 121.309 C 206.501 121.245,207.000 121.027,207.000 120.148 C 207.000 119.875,207.138 119.831,208.042 119.814 C 209.834 119.780,210.053 119.685,210.213 118.874 L 210.353 118.167 211.561 118.167 C 212.929 118.167,213.288 117.984,213.365 117.250 C 213.412 116.791,213.478 116.743,214.165 116.667 C 214.704 116.607,214.929 116.502,214.969 116.292 C 215.107 115.564,215.962 115.018,217.047 114.966 L 218.083 114.917 218.239 114.216 C 218.387 113.547,218.423 113.514,219.072 113.466 L 219.750 113.417 219.801 112.625 L 219.852 111.833 220.634 111.824 C 221.909 111.809,222.553 111.510,222.771 110.833 C 222.930 110.339,223.044 110.242,223.520 110.195 C 224.276 110.120,224.500 109.899,224.500 109.230 C 224.500 108.736,224.553 108.667,224.928 108.667 C 225.646 108.667,225.990 108.373,226.104 107.661 C 226.198 107.073,226.261 107.000,226.676 107.000 C 227.275 107.000,227.667 106.604,227.667 106.000 C 227.667 105.513,228.034 105.002,228.387 104.998 C 228.495 104.996,228.752 104.950,228.958 104.895 C 229.261 104.814,229.333 104.863,229.333 105.147 C 229.333 105.341,229.392 105.500,229.463 105.500 C 229.535 105.500,229.680 105.730,229.786 106.011 C 229.909 106.336,230.166 106.592,230.493 106.715 C 230.882 106.862,231.049 107.062,231.176 107.535 C 231.364 108.234,231.646 108.439,232.633 108.597 C 233.353 108.712,234.090 109.336,234.194 109.917 C 234.240 110.178,234.406 110.261,234.960 110.301 C 235.615 110.349,235.667 110.388,235.667 110.829 C 235.667 111.680,235.809 111.833,236.601 111.833 L 237.333 111.833 237.333 112.504 C 237.333 113.223,237.683 113.500,238.594 113.500 C 238.881 113.500,239.000 113.592,239.000 113.815 C 239.000 114.551,239.532 114.875,240.887 114.962 L 242.167 115.044 242.167 115.764 C 242.167 116.582,242.265 116.627,244.250 116.709 L 245.250 116.750 245.301 117.458 L 245.352 118.167 246.437 118.167 C 247.565 118.167,248.154 118.548,248.536 119.527 C 248.640 119.793,248.855 119.833,250.161 119.833 L 251.667 119.833 251.667 120.583 L 251.667 121.333 253.250 121.333 L 254.833 121.333 254.836 121.875 C 254.841 122.865,254.944 122.911,257.298 122.974 L 259.443 123.032 259.596 123.724 L 259.750 124.417 262.350 124.462 C 265.179 124.512,265.338 124.567,265.903 125.702 C 266.092 126.081,266.118 126.084,269.963 126.128 L 273.833 126.173 273.836 126.711 C 273.840 127.657,273.905 127.681,276.263 127.630 L 278.417 127.583 278.467 126.896 C 278.516 126.230,278.538 126.205,279.189 126.118 C 280.082 125.998,280.075 126.012,280.142 124.412 L 280.200 123.018 280.892 122.967 L 281.583 122.917 281.634 121.833 C 281.689 120.660,282.158 119.906,282.898 119.800 C 283.191 119.758,283.259 119.617,283.301 118.958 C 283.346 118.254,283.395 118.167,283.741 118.167 C 284.597 118.167,284.847 117.714,284.951 115.977 C 285.089 113.670,285.023 113.500,284.000 113.500 C 283.264 113.500,283.162 113.456,283.072 113.096 C 282.806 112.039,281.702 111.836,276.208 111.835 L 272.167 111.833 272.167 111.283 C 272.167 110.389,272.005 110.333,269.383 110.333 C 267.515 110.333,267.000 110.286,267.000 110.112 C 267.000 109.851,266.309 109.167,266.045 109.167 C 265.944 109.167,265.830 109.073,265.792 108.958 C 265.742 108.809,265.079 108.735,263.445 108.695 C 261.235 108.642,261.167 108.630,261.164 108.279 C 261.158 107.219,261.079 107.167,259.504 107.167 L 258.047 107.167 257.899 106.466 C 257.726 105.651,257.494 105.542,255.878 105.517 C 254.885 105.501,254.835 105.480,254.743 105.042 C 254.553 104.139,254.465 104.086,253.045 104.035 L 251.709 103.987 251.618 103.313 C 251.502 102.445,251.509 102.450,250.288 102.367 C 249.173 102.292,248.333 101.763,248.333 101.135 C 248.333 100.888,248.196 100.833,247.583 100.833 L 246.833 100.833 246.833 100.200 C 246.833 99.402,246.598 99.167,245.800 99.167 C 245.195 99.167,245.167 99.142,245.167 98.617 C 245.167 97.902,244.911 97.667,244.133 97.667 C 243.528 97.667,243.500 97.642,243.500 97.117 C 243.500 96.422,243.255 96.177,242.508 96.126 C 242.183 96.104,251.217 96.047,262.583 96.001 L 283.250 95.917 283.250 89.667 L 283.250 83.417 259.458 83.374 L 235.667 83.332 235.667 79.333 L 235.667 75.333 257.919 75.333 L 280.171 75.333 280.127 69.042 L 280.083 62.750 257.875 62.708 L 235.667 62.665 235.667 60.333 L 235.667 58.000 257.730 58.000 C 276.377 58.000,279.822 57.964,279.985 57.768 C 280.307 57.380,280.162 44.037,279.833 43.830 C 279.679 43.732,271.163 43.671,257.625 43.669 L 235.667 43.667 235.667 41.251 L 235.667 38.834 259.458 38.792 L 283.250 38.750 283.250 32.500 L 283.250 26.250 273.783 26.207 L 264.315 26.164 264.366 25.374 C 264.414 24.632,264.447 24.580,264.917 24.531 C 265.792 24.440,265.833 24.255,265.833 20.388 C 265.833 16.847,265.833 16.839,265.458 16.746 C 265.252 16.694,261.458 16.674,257.028 16.701 C 247.394 16.760,248.500 16.311,248.499 20.157 C 248.499 21.675,248.450 23.648,248.391 24.542 L 248.283 26.167 228.483 26.167 L 208.682 26.167 208.633 21.675 C 208.595 18.266,208.531 17.131,208.367 16.966 C 208.037 16.637,192.049 16.553,191.606 16.879 M296.218 18.542 C 296.045 18.809,295.955 122.610,296.127 123.642 C 296.255 124.410,296.262 124.417,296.961 124.468 C 297.607 124.515,297.667 124.558,297.667 124.978 C 297.667 125.230,297.773 125.582,297.903 125.760 C 298.136 126.079,298.873 126.084,349.070 126.126 L 400.000 126.169 400.000 73.834 L 400.000 21.500 399.592 21.500 C 399.225 21.500,399.180 21.423,399.134 20.708 L 399.083 19.917 397.542 19.869 C 396.016 19.821,396.000 19.816,396.000 19.399 C 396.000 19.168,395.922 18.833,395.827 18.656 C 395.609 18.248,296.481 18.135,296.218 18.542 M386.500 73.000 L 386.500 113.500 349.167 113.500 L 311.833 113.500 311.833 73.000 L 311.833 32.500 349.167 32.500 L 386.500 32.500 386.500 73.000 M356.444 35.778 C 356.383 35.839,356.333 37.639,356.333 39.778 L 356.333 43.667 335.958 43.669 C 323.408 43.671,315.487 43.732,315.333 43.830 C 315.118 43.966,315.083 44.930,315.083 50.833 C 315.083 56.737,315.118 57.701,315.333 57.837 C 315.482 57.931,319.002 57.996,324.042 57.997 L 332.500 58.000 332.500 59.554 L 332.500 61.108 331.882 61.262 C 331.056 61.469,331.036 61.571,331.017 65.857 L 331.000 69.464 330.578 69.570 C 330.340 69.630,330.068 69.874,329.956 70.130 C 329.846 70.379,329.680 70.637,329.587 70.702 C 329.489 70.770,329.394 71.843,329.363 73.229 C 329.310 75.615,329.306 75.637,328.907 75.737 C 328.128 75.933,327.833 76.946,327.833 79.430 C 327.833 81.825,327.830 81.833,326.838 81.833 C 326.212 81.833,326.167 82.008,326.167 84.421 L 326.167 86.481 325.458 86.532 L 324.750 86.583 324.667 88.167 L 324.583 89.750 324.054 89.801 C 323.239 89.880,323.140 90.137,323.042 92.413 L 322.952 94.500 322.226 94.500 L 321.500 94.500 321.500 96.074 L 321.500 97.648 320.708 97.699 L 319.917 97.750 319.869 99.292 L 319.821 100.833 319.077 100.833 L 318.333 100.833 318.333 101.654 C 318.333 102.438,318.308 102.482,317.770 102.660 C 317.128 102.872,316.667 103.800,316.667 104.881 C 316.667 105.411,316.613 105.500,316.292 105.502 C 315.158 105.509,315.167 105.490,315.167 107.933 C 315.167 110.671,314.034 110.366,323.961 110.302 C 333.168 110.242,332.388 110.408,332.475 108.493 L 332.535 107.167 333.089 107.167 C 333.973 107.167,334.167 106.835,334.167 105.321 L 334.167 104.000 334.653 104.000 C 335.623 104.000,335.667 103.927,335.667 102.316 L 335.667 100.833 336.238 100.833 C 337.140 100.833,337.333 100.508,337.333 98.991 C 337.333 97.688,337.338 97.672,337.792 97.577 C 338.724 97.380,338.747 97.334,338.798 95.485 C 338.849 93.655,339.225 92.833,340.013 92.833 C 340.422 92.833,340.500 92.499,340.500 90.736 C 340.500 89.488,340.549 89.167,340.738 89.167 C 340.869 89.167,341.130 88.960,341.319 88.708 C 341.508 88.456,341.739 88.159,341.832 88.049 C 341.927 87.935,342.000 86.867,342.000 85.590 L 342.000 83.333 342.571 83.333 C 343.569 83.333,343.667 83.088,343.667 80.571 C 343.667 78.362,343.672 78.333,344.042 78.331 C 345.016 78.324,345.167 77.720,345.167 73.812 L 345.167 70.705 345.917 70.592 C 346.329 70.530,346.681 70.465,346.699 70.448 C 346.717 70.431,346.773 68.317,346.824 65.750 L 346.917 61.083 347.417 61.027 C 348.231 60.935,348.333 60.744,348.333 59.313 L 348.333 58.000 352.333 58.000 L 356.333 58.000 356.333 75.667 C 356.333 90.860,356.300 93.333,356.095 93.333 C 355.965 93.333,355.703 93.540,355.514 93.792 C 355.325 94.044,355.094 94.341,355.002 94.451 C 354.902 94.571,354.833 95.904,354.833 97.743 L 354.833 100.833 354.101 100.833 C 353.208 100.833,353.167 100.917,353.167 102.730 L 353.167 104.100 352.589 104.309 C 351.815 104.588,351.669 105.168,351.668 107.955 C 351.666 110.657,350.597 110.354,359.917 110.296 L 367.417 110.250 367.467 109.458 C 367.517 108.687,367.532 108.667,368.059 108.667 C 368.940 108.667,369.000 108.494,369.000 105.967 L 369.000 103.667 369.391 103.667 C 370.459 103.667,370.667 102.625,370.667 97.280 L 370.667 92.848 371.255 92.738 C 372.201 92.561,372.167 93.224,372.167 75.011 L 372.167 58.000 377.468 58.000 C 381.487 58.000,382.840 57.949,383.059 57.789 C 383.468 57.489,383.412 44.090,383.000 43.830 C 382.856 43.739,380.499 43.671,377.458 43.669 L 372.167 43.667 372.167 39.769 L 372.167 35.872 371.792 35.772 C 371.276 35.634,356.583 35.639,356.444 35.778 M26.021 46.512 C 25.878 46.835,25.834 47.270,25.901 47.689 C 26.243 49.826,25.641 50.167,21.524 50.167 L 18.350 50.167 17.592 50.883 C 16.512 51.903,16.471 53.042,17.493 53.625 L 18.149 54.000 28.366 54.002 C 39.526 54.005,39.144 53.972,39.691 54.997 C 40.211 55.975,40.136 58.481,39.570 59.013 L 39.140 59.417 29.112 59.459 C 23.596 59.482,18.927 59.537,18.736 59.580 C 18.300 59.679,18.000 60.613,18.000 61.869 C 18.000 63.447,17.187 63.333,28.451 63.333 C 40.882 63.333,39.867 63.082,39.974 66.182 C 40.069 68.926,41.226 68.667,28.883 68.667 C 22.144 68.667,18.535 68.726,18.322 68.839 C 17.921 69.054,17.830 72.151,18.215 72.471 C 18.362 72.593,21.739 72.666,28.813 72.700 L 39.196 72.750 39.598 73.218 C 39.974 73.655,40.000 73.813,40.000 75.667 C 40.000 79.014,40.688 78.833,27.926 78.833 L 18.166 78.833 17.500 79.520 C 16.524 80.526,16.523 81.583,17.496 82.228 L 18.160 82.667 27.012 82.667 C 38.320 82.667,38.164 82.634,37.402 84.833 C 37.131 85.616,36.580 86.333,36.249 86.333 C 36.143 86.333,35.820 86.627,35.531 86.986 C 35.243 87.345,34.762 87.720,34.462 87.820 C 34.154 87.922,33.796 88.213,33.640 88.488 C 33.446 88.828,33.101 89.068,32.496 89.280 C 32.020 89.447,31.376 89.822,31.065 90.114 C 30.471 90.672,30.437 90.686,29.029 91.005 C 28.541 91.116,27.947 91.386,27.709 91.607 C 27.214 92.066,26.137 92.388,24.307 92.624 C 23.470 92.733,22.854 92.915,22.520 93.152 C 22.141 93.422,21.533 93.574,20.149 93.745 C 18.074 94.001,18.033 94.027,17.585 95.332 C 17.412 95.836,17.132 96.397,16.962 96.579 C 16.602 96.965,16.423 97.560,16.560 97.916 C 16.802 98.548,22.772 98.049,24.195 97.278 C 24.692 97.009,25.673 96.736,26.912 96.522 C 28.555 96.238,28.934 96.113,29.405 95.699 C 29.711 95.431,30.251 95.161,30.606 95.099 C 30.960 95.037,31.438 94.921,31.667 94.840 C 31.896 94.760,32.281 94.651,32.522 94.599 C 32.763 94.546,32.995 94.372,33.037 94.210 C 33.080 94.049,33.295 93.833,33.515 93.731 C 34.274 93.379,34.751 93.187,35.141 93.077 C 35.357 93.017,35.826 92.674,36.183 92.317 C 36.541 91.959,36.943 91.667,37.077 91.667 C 37.211 91.667,37.642 91.367,38.035 91.002 C 38.428 90.636,38.938 90.163,39.167 89.950 C 39.396 89.737,39.696 89.442,39.833 89.294 C 39.971 89.146,40.308 88.811,40.583 88.549 C 40.858 88.288,41.237 87.856,41.426 87.590 C 41.745 87.141,41.837 87.110,42.759 87.143 C 44.099 87.192,44.255 87.257,44.653 87.931 C 44.842 88.251,45.216 88.640,45.484 88.793 C 45.752 88.947,46.089 89.272,46.233 89.516 C 46.377 89.760,46.756 90.083,47.074 90.234 C 47.393 90.386,47.787 90.735,47.950 91.012 C 48.113 91.288,48.435 91.558,48.665 91.612 C 49.081 91.710,50.200 92.452,50.305 92.699 C 50.372 92.858,51.575 93.400,52.214 93.560 C 52.475 93.625,52.761 93.858,52.868 94.092 C 52.973 94.323,53.248 94.549,53.487 94.601 C 53.723 94.652,54.104 94.758,54.333 94.836 C 54.563 94.915,54.999 95.029,55.304 95.089 C 55.609 95.149,56.099 95.410,56.393 95.668 C 56.881 96.097,58.799 96.667,59.752 96.667 C 60.080 96.667,61.548 97.320,61.678 97.525 C 61.793 97.703,64.479 98.161,65.417 98.161 C 66.973 98.162,67.543 97.824,67.943 96.662 C 68.162 96.028,68.509 95.420,68.819 95.130 C 69.549 94.449,69.397 94.000,68.438 94.000 C 67.454 94.000,65.075 93.457,64.611 93.127 C 64.313 92.915,63.662 92.730,62.860 92.628 C 60.891 92.379,59.539 91.994,59.102 91.556 C 58.844 91.298,58.372 91.105,57.729 90.993 C 56.469 90.773,55.533 90.366,55.412 89.985 C 55.350 89.789,54.913 89.557,54.152 89.317 C 53.358 89.067,52.858 88.796,52.581 88.467 C 52.358 88.202,51.836 87.835,51.422 87.652 C 50.966 87.450,50.571 87.131,50.423 86.845 C 50.288 86.585,50.007 86.326,49.797 86.268 C 49.094 86.076,48.825 85.712,48.488 84.498 C 47.967 82.618,47.599 82.683,58.815 82.674 C 67.614 82.667,67.722 82.663,68.440 82.304 L 69.167 81.941 69.164 81.012 C 69.161 79.953,69.133 79.894,68.318 79.283 L 67.719 78.833 57.281 78.833 L 46.844 78.833 46.256 78.244 L 45.667 77.656 45.667 75.820 C 45.667 73.782,45.880 73.101,46.602 72.826 C 46.852 72.731,51.072 72.667,57.062 72.667 C 68.833 72.667,67.698 72.890,67.632 70.582 L 67.583 68.919 67.083 68.813 C 66.808 68.754,62.061 68.697,56.534 68.686 L 46.484 68.667 46.075 68.226 C 45.337 67.429,45.522 64.617,46.373 63.708 L 46.725 63.333 56.618 63.333 C 68.268 63.333,67.667 63.414,67.667 61.853 C 67.667 59.362,68.316 59.500,56.599 59.500 C 46.305 59.500,46.202 59.493,45.852 58.724 C 45.563 58.091,45.619 55.745,45.937 55.117 C 46.553 53.901,45.549 54.000,57.202 54.000 C 67.373 54.000,67.707 53.990,68.426 53.663 L 69.167 53.325 69.167 52.334 L 69.167 51.342 68.294 50.754 L 67.421 50.167 64.169 50.163 C 60.098 50.158,60.120 50.168,60.032 48.221 C 60.000 47.504,59.886 46.710,59.780 46.458 L 59.585 46.000 57.214 46.000 L 54.842 46.000 54.588 46.492 C 54.448 46.762,54.333 47.313,54.333 47.716 C 54.333 50.127,54.146 50.167,42.809 50.167 C 31.761 50.167,31.694 50.154,31.542 48.039 C 31.504 47.513,31.363 46.840,31.229 46.542 L 30.984 46.000 28.616 46.000 L 26.248 46.000 26.021 46.512 M78.243 47.242 C 77.955 47.931,77.870 95.829,78.155 96.534 C 78.240 96.744,78.350 97.105,78.398 97.336 C 78.573 98.163,78.691 98.167,104.212 98.167 C 122.310 98.167,127.813 98.120,127.967 97.967 C 128.222 97.712,128.260 49.101,128.006 48.432 C 127.914 48.191,127.663 47.964,127.422 47.903 C 127.189 47.845,126.801 47.561,126.559 47.273 L 126.118 46.750 102.302 46.706 L 78.485 46.661 78.243 47.242 M122.070 51.283 C 122.299 51.530,122.564 52.096,122.660 52.541 C 122.860 53.474,122.882 90.799,122.684 92.393 C 122.463 94.160,124.509 93.992,103.083 93.994 L 84.417 93.995 83.753 93.619 C 82.598 92.965,82.672 94.398,82.669 72.565 L 82.667 52.714 83.361 51.924 C 84.359 50.791,83.170 50.855,103.202 50.844 L 121.653 50.833 122.070 51.283 M108.458 55.877 C 108.298 56.268,108.167 57.006,108.167 57.518 C 108.167 58.489,107.923 58.951,107.250 59.259 C 107.067 59.343,102.649 59.450,97.434 59.497 L 87.951 59.583 87.647 60.500 C 86.781 63.109,87.067 63.321,91.471 63.328 L 94.859 63.333 95.346 63.821 C 95.913 64.387,95.913 64.390,95.664 68.484 C 95.501 71.173,95.222 72.632,94.774 73.153 C 94.424 73.560,94.199 74.374,94.070 75.703 C 93.937 77.068,93.630 78.077,93.195 78.579 C 92.844 78.983,92.570 79.797,92.422 80.876 C 92.295 81.796,92.086 82.245,91.478 82.898 C 91.194 83.205,91.004 83.641,90.937 84.143 C 90.812 85.082,90.393 85.912,89.916 86.167 C 89.663 86.302,89.503 86.640,89.358 87.345 C 89.192 88.148,89.026 88.456,88.475 88.986 C 87.495 89.927,87.646 90.000,90.552 89.997 C 93.266 89.995,93.322 89.982,93.621 89.300 C 93.729 89.053,94.009 88.726,94.242 88.573 C 94.476 88.420,94.667 88.186,94.667 88.054 C 94.667 87.227,95.552 85.349,95.947 85.339 C 96.057 85.336,96.265 84.761,96.418 84.042 C 96.758 82.436,96.938 81.958,97.406 81.413 C 97.751 81.012,97.973 80.169,98.263 78.167 C 98.383 77.340,98.560 76.919,99.000 76.417 C 99.354 76.013,99.611 74.868,99.749 73.083 C 99.851 71.760,100.237 70.088,100.523 69.730 C 100.829 69.346,101.136 67.866,101.237 66.283 C 101.417 63.465,101.684 63.258,105.008 63.362 C 107.102 63.427,107.186 63.444,107.627 63.885 L 108.083 64.341 108.083 74.296 L 108.083 84.250 107.607 85.083 C 107.168 85.851,106.668 87.621,106.666 88.417 C 106.665 88.600,106.551 88.967,106.413 89.233 C 106.064 89.902,106.086 89.910,108.593 89.971 L 110.825 90.026 111.266 89.555 C 112.205 88.551,112.134 88.889,112.660 82.917 C 112.757 81.817,112.911 80.017,113.003 78.917 C 113.095 77.817,113.170 74.349,113.169 71.210 C 113.166 63.466,113.223 63.333,116.542 63.333 C 118.908 63.333,119.224 62.883,118.638 60.346 L 118.443 59.500 116.845 59.500 C 114.108 59.500,113.167 58.926,113.167 57.255 C 113.167 56.480,113.102 56.325,112.556 55.778 L 111.944 55.167 110.347 55.167 L 108.750 55.168 108.458 55.877 " stroke="none" fill="#050504" fill-rule="evenodd"></path><path id="path1" d="M21.833 0.417 C 21.833 0.829,21.817 0.834,20.333 0.854 C 19.508 0.866,18.743 0.884,18.633 0.896 C 18.523 0.907,18.404 1.217,18.368 1.583 C 18.289 2.399,18.442 2.303,17.165 2.340 C 15.217 2.397,15.167 2.420,15.167 3.263 L 15.167 4.000 14.125 4.029 C 13.174 4.055,12.835 4.075,12.196 4.143 C 12.075 4.156,11.990 4.335,12.007 4.542 C 12.077 5.407,12.021 5.500,11.427 5.500 C 11.111 5.500,10.806 5.576,10.748 5.669 C 10.691 5.763,10.586 5.803,10.516 5.760 C 10.445 5.716,10.375 5.990,10.361 6.368 C 10.328 7.206,10.373 7.161,9.530 7.194 L 8.838 7.221 8.731 8.024 C 8.672 8.466,8.554 8.783,8.468 8.730 C 7.935 8.401,7.250 8.836,7.202 9.534 C 7.143 10.385,7.200 10.328,6.389 10.360 C 5.688 10.387,5.666 10.416,5.614 11.417 C 5.582 12.022,5.473 12.082,4.542 12.007 C 4.335 11.990,4.156 12.075,4.143 12.196 C 4.075 12.835,4.055 13.174,4.029 14.125 L 4.000 15.167 3.263 15.167 C 2.420 15.167,2.397 15.217,2.340 17.165 C 2.303 18.442,2.399 18.289,1.583 18.368 C 0.836 18.440,0.889 18.286,0.854 20.500 C 0.834 21.806,0.825 21.833,0.417 21.833 L 0.000 21.833 0.000 72.250 L 0.000 122.667 0.417 122.667 C 0.811 122.667,1.038 124.322,0.845 125.794 C 0.830 125.910,0.877 125.995,0.950 125.983 C 1.024 125.971,1.121 125.976,1.167 125.994 C 1.212 126.012,1.474 126.064,1.747 126.108 C 2.383 126.211,2.331 126.089,2.352 127.505 C 2.375 129.028,2.546 129.333,3.373 129.333 L 4.000 129.333 4.020 130.375 C 4.031 130.948,4.031 131.473,4.020 131.542 C 4.009 131.610,4.094 131.668,4.208 131.669 C 4.347 131.671,4.334 131.724,4.168 131.829 C 3.956 131.963,3.954 132.018,4.151 132.201 C 4.342 132.379,4.361 132.373,4.262 132.167 C 4.184 132.005,4.225 132.017,4.377 132.202 C 4.527 132.385,4.764 132.460,5.034 132.411 C 5.430 132.339,5.464 132.388,5.568 133.167 C 5.628 133.625,5.751 134.009,5.839 134.021 C 5.928 134.032,6.075 134.060,6.167 134.083 C 6.258 134.106,6.517 134.134,6.740 134.146 C 7.096 134.164,7.154 134.256,7.199 134.875 C 7.250 135.580,7.253 135.584,7.958 135.635 C 8.509 135.674,8.667 135.752,8.667 135.985 C 8.667 136.388,9.002 137.327,9.140 137.309 C 10.062 137.185,10.314 137.336,10.365 138.042 L 10.417 138.750 11.208 138.801 C 12.045 138.854,12.010 138.809,12.066 139.917 C 12.076 140.100,12.196 140.252,12.333 140.254 C 12.471 140.257,12.658 140.304,12.750 140.360 C 12.842 140.415,13.399 140.470,13.988 140.482 C 15.256 140.507,15.139 140.428,15.190 141.297 L 15.232 142.000 16.783 142.000 L 18.333 142.000 18.333 142.778 C 18.333 143.206,18.383 143.506,18.443 143.446 C 18.503 143.386,18.645 143.413,18.759 143.507 C 18.872 143.601,19.029 143.667,19.107 143.653 C 20.108 143.473,21.796 143.702,21.985 144.042 C 22.099 144.248,22.454 144.585,22.774 144.792 L 23.356 145.167 72.433 145.167 C 117.058 145.167,121.520 145.143,121.612 144.903 C 121.693 144.690,121.740 144.682,121.852 144.861 C 121.993 145.087,122.637 144.850,122.542 144.607 C 122.475 144.435,122.246 144.517,122.296 144.696 C 122.321 144.785,122.261 144.808,122.163 144.748 C 121.903 144.587,122.294 144.162,122.596 144.278 C 122.726 144.328,122.833 144.286,122.833 144.184 C 122.833 144.083,122.740 143.999,122.625 143.997 C 122.486 143.996,122.500 143.941,122.667 143.833 C 122.804 143.744,123.606 143.671,124.448 143.669 C 125.303 143.668,126.027 143.592,126.085 143.497 C 126.143 143.404,126.254 143.368,126.333 143.417 C 126.412 143.465,126.524 143.429,126.582 143.336 C 126.639 143.243,126.612 143.167,126.520 143.167 C 126.429 143.167,126.556 142.960,126.802 142.708 C 127.059 142.446,127.300 142.319,127.366 142.412 C 127.432 142.504,127.529 142.451,127.592 142.287 C 127.673 142.076,127.895 142.000,128.426 142.000 C 128.940 142.000,129.199 141.915,129.320 141.708 C 129.414 141.546,129.492 141.509,129.495 141.625 C 129.498 141.740,129.612 141.833,129.750 141.833 C 130.030 141.833,130.092 141.559,129.832 141.472 C 129.739 141.441,129.811 141.324,129.991 141.211 C 130.232 141.060,130.349 141.056,130.435 141.196 C 130.504 141.307,130.477 141.339,130.371 141.273 C 130.271 141.212,130.146 141.232,130.092 141.319 C 129.924 141.591,130.285 141.676,130.502 141.415 C 130.665 141.218,130.664 141.115,130.497 140.913 C 130.319 140.698,130.333 140.677,130.587 140.775 C 130.794 140.854,130.850 140.829,130.768 140.695 C 130.656 140.515,131.306 140.403,131.960 140.488 C 132.202 140.519,132.500 139.831,132.500 139.239 C 132.500 138.864,132.562 138.833,133.328 138.833 C 134.032 138.833,134.140 138.792,134.050 138.556 C 133.989 138.397,134.012 138.321,134.104 138.378 C 134.198 138.436,134.237 138.244,134.197 137.905 C 134.138 137.403,134.176 137.333,134.508 137.333 C 134.882 137.333,134.882 137.337,134.569 137.708 C 134.284 138.046,134.298 138.043,134.710 137.679 C 134.961 137.457,135.167 137.335,135.167 137.408 C 135.167 137.481,135.260 137.465,135.375 137.373 C 135.490 137.281,135.830 137.152,136.131 137.088 C 136.848 136.935,137.304 136.286,136.978 135.884 C 136.822 135.692,136.816 135.642,136.958 135.728 C 137.073 135.797,137.167 135.774,137.167 135.677 C 137.167 135.579,137.279 135.500,137.417 135.500 C 137.674 135.500,137.765 135.238,137.542 135.139 C 137.473 135.108,137.618 134.886,137.865 134.646 C 138.212 134.307,138.334 134.262,138.405 134.446 C 138.455 134.577,138.432 134.644,138.354 134.596 C 138.275 134.547,138.084 134.649,137.928 134.821 C 137.714 135.057,137.695 135.164,137.849 135.260 C 138.112 135.422,138.683 134.736,138.557 134.409 C 138.506 134.276,138.547 134.167,138.649 134.167 C 138.759 134.167,138.833 133.831,138.833 133.333 C 138.833 132.523,138.847 132.499,139.333 132.479 C 140.301 132.439,140.420 132.344,140.472 131.568 C 140.526 130.775,140.591 130.678,141.006 130.787 C 141.671 130.961,141.968 130.432,141.982 129.046 C 141.997 127.583,141.971 127.633,142.742 127.612 C 143.067 127.603,143.339 127.556,143.346 127.506 C 143.353 127.457,143.400 127.267,143.451 127.083 C 143.502 126.900,143.578 125.906,143.619 124.875 C 143.696 122.975,143.717 122.924,144.376 122.991 C 145.080 123.063,145.141 122.738,145.160 118.818 C 145.179 114.957,145.199 114.835,145.829 114.788 C 146.380 114.746,146.779 114.088,146.478 113.717 C 146.284 113.477,146.285 113.457,146.487 113.579 C 146.663 113.685,146.697 113.652,146.619 113.449 C 146.562 113.300,146.585 113.134,146.672 113.080 C 146.887 112.947,146.884 31.333,146.669 31.333 C 146.582 31.333,146.554 31.221,146.606 31.083 C 146.662 30.937,146.608 30.832,146.476 30.831 C 146.296 30.829,146.299 30.797,146.491 30.676 C 146.917 30.406,146.450 29.704,145.758 29.574 L 145.167 29.463 145.164 25.690 C 145.161 21.554,145.170 21.600,144.333 21.522 C 144.012 21.492,143.736 21.455,143.719 21.439 C 143.702 21.424,143.670 20.564,143.647 19.530 C 143.624 18.495,143.543 17.610,143.467 17.563 C 143.390 17.516,143.371 17.407,143.424 17.322 C 143.477 17.236,143.436 17.167,143.333 17.167 C 143.231 17.167,143.193 17.093,143.249 17.002 C 143.309 16.904,143.235 16.882,143.065 16.947 C 142.871 17.021,142.817 16.994,142.899 16.862 C 142.981 16.729,142.857 16.667,142.510 16.667 C 141.974 16.667,141.861 16.224,141.986 14.624 C 142.024 14.132,141.612 13.578,141.335 13.749 C 141.242 13.806,141.167 13.774,141.167 13.677 C 141.167 13.579,141.017 13.500,140.833 13.500 C 140.594 13.500,140.494 13.382,140.479 13.083 C 140.468 12.854,140.449 12.595,140.438 12.508 C 140.398 12.206,140.080 12.023,139.500 11.970 C 138.931 11.918,138.915 11.897,138.866 11.125 C 138.838 10.690,138.754 10.333,138.678 10.333 C 138.603 10.333,138.542 10.133,138.542 9.888 C 138.542 9.428,138.131 9.004,137.676 8.995 C 137.365 8.988,136.677 8.500,136.979 8.500 C 137.255 8.500,137.059 7.823,136.701 7.542 C 136.556 7.427,136.233 7.333,135.985 7.333 C 135.646 7.333,135.448 7.189,135.192 6.755 C 135.000 6.430,134.665 6.131,134.427 6.071 C 134.193 6.012,134.042 5.900,134.091 5.820 C 134.178 5.680,133.549 5.450,133.239 5.509 C 132.754 5.603,132.500 5.471,132.498 5.125 C 132.492 4.161,132.345 4.000,131.471 4.000 C 130.901 4.000,130.683 3.942,130.763 3.812 C 130.830 3.704,130.794 3.652,130.678 3.691 C 130.567 3.728,130.135 3.445,129.718 3.062 C 129.138 2.530,128.827 2.367,128.392 2.367 C 128.080 2.367,127.726 2.285,127.605 2.185 C 127.485 2.085,127.320 2.058,127.240 2.126 C 127.160 2.194,127.198 2.115,127.325 1.950 C 127.843 1.275,126.660 0.854,124.208 0.841 C 122.855 0.833,122.833 0.827,122.833 0.417 L 122.833 0.000 72.333 0.000 L 21.833 0.000 21.833 0.417 M127.167 1.759 C 127.167 1.822,127.057 1.784,126.924 1.673 C 126.790 1.562,126.584 1.530,126.466 1.601 C 126.301 1.700,126.303 1.665,126.475 1.453 C 126.694 1.183,127.167 1.392,127.167 1.759 M129.566 2.742 C 129.740 2.878,129.965 2.942,130.066 2.885 C 130.167 2.827,130.194 2.841,130.126 2.916 C 129.992 3.065,130.285 3.500,130.520 3.500 C 131.114 3.500,130.480 2.763,129.750 2.604 C 129.284 2.502,129.272 2.512,129.566 2.742 M134.802 6.506 C 135.287 6.958,135.262 7.106,134.700 7.106 C 134.307 7.106,134.227 7.031,134.197 6.636 C 134.155 6.079,134.308 6.046,134.802 6.506 M138.229 9.496 C 138.329 9.596,138.334 9.668,138.242 9.669 C 138.155 9.671,138.185 9.736,138.309 9.815 C 138.434 9.894,138.471 9.989,138.393 10.027 C 138.314 10.065,138.038 9.890,137.778 9.638 C 137.332 9.205,137.327 9.185,137.683 9.253 C 137.890 9.293,138.136 9.402,138.229 9.496 M31.500 44.215 C 31.949 44.442,32.479 45.363,32.492 45.938 C 32.496 46.133,32.617 46.389,32.760 46.508 C 33.062 46.759,33.500 47.742,33.500 48.169 C 33.500 48.656,33.694 48.667,42.993 48.667 C 52.884 48.667,52.212 48.748,52.398 47.530 C 52.460 47.124,52.681 46.623,52.907 46.380 C 53.126 46.144,53.354 45.690,53.414 45.373 C 53.639 44.172,53.855 44.090,56.919 44.031 C 60.952 43.953,61.303 44.211,61.087 47.095 L 60.969 48.667 64.859 48.686 C 69.310 48.709,69.588 48.746,70.065 49.386 C 70.546 50.031,70.669 53.165,70.269 54.544 C 69.815 56.105,70.749 55.992,57.966 56.040 L 46.750 56.083 46.700 57.125 L 46.651 58.167 57.084 58.167 C 69.908 58.167,68.837 57.873,68.829 61.386 C 68.820 65.799,69.943 65.399,57.254 65.500 L 46.750 65.583 46.700 66.528 L 46.651 67.472 57.321 67.528 L 67.991 67.583 68.370 67.963 C 69.193 68.785,69.001 73.070,68.096 74.058 L 67.538 74.667 57.189 74.667 L 46.840 74.667 46.743 75.051 C 46.690 75.262,46.670 75.843,46.698 76.342 L 46.750 77.250 58.202 77.333 C 70.818 77.425,69.931 77.341,70.311 78.483 C 70.552 79.207,70.556 82.058,70.317 83.171 C 69.981 84.739,70.503 84.662,60.000 84.686 C 55.004 84.697,50.692 84.759,50.417 84.823 L 49.917 84.940 50.551 85.126 C 50.936 85.239,51.420 85.579,51.780 85.989 C 52.106 86.362,52.444 86.667,52.531 86.667 C 53.075 86.667,54.282 87.391,54.441 87.813 C 54.598 88.227,54.727 88.294,55.545 88.391 C 56.641 88.520,57.448 88.938,57.575 89.444 C 57.654 89.758,57.819 89.821,58.792 89.911 C 60.408 90.061,61.606 90.453,62.007 90.964 C 62.335 91.380,62.438 91.402,64.716 91.529 C 70.200 91.836,70.675 92.114,70.506 94.917 C 70.484 95.283,70.409 95.658,70.339 95.750 C 70.270 95.842,70.165 96.117,70.107 96.361 C 70.041 96.636,69.812 96.889,69.506 97.024 C 69.117 97.196,68.968 97.412,68.808 98.035 C 68.341 99.857,65.747 100.738,64.435 99.521 C 64.150 99.258,63.657 99.158,61.844 98.999 C 59.340 98.778,58.988 98.684,58.432 98.084 C 58.061 97.683,57.640 97.557,55.663 97.256 C 55.325 97.204,54.746 96.893,54.298 96.522 C 53.799 96.110,53.273 95.840,52.834 95.769 C 52.141 95.659,50.833 94.950,50.833 94.685 C 50.833 94.605,50.608 94.456,50.333 94.354 C 50.058 94.251,49.613 94.085,49.344 93.984 C 49.045 93.873,48.791 93.618,48.690 93.327 C 48.564 92.966,48.362 92.809,47.848 92.671 C 47.441 92.561,46.855 92.188,46.377 91.735 C 45.941 91.320,45.358 90.870,45.083 90.734 C 44.808 90.598,44.378 90.189,44.127 89.827 C 43.419 88.804,41.541 88.992,41.506 90.088 C 41.499 90.294,41.065 90.671,40.497 90.964 C 40.269 91.082,39.963 91.382,39.817 91.631 C 39.562 92.067,39.020 92.403,37.875 92.836 C 37.577 92.948,37.333 93.138,37.333 93.258 C 37.333 93.565,36.524 94.166,36.103 94.172 C 35.702 94.178,35.167 94.534,35.167 94.794 C 35.167 95.103,34.008 95.661,33.053 95.811 C 32.500 95.897,32.061 96.064,31.974 96.219 C 31.638 96.820,30.863 97.156,29.269 97.393 C 27.912 97.595,27.587 97.704,27.249 98.069 C 26.666 98.698,26.342 98.779,23.490 99.005 C 21.366 99.174,20.855 99.266,20.561 99.532 C 19.705 100.309,16.662 100.590,15.795 99.973 L 15.289 99.612 15.371 97.332 C 15.457 94.935,15.759 93.766,16.339 93.582 C 16.490 93.534,16.848 93.168,17.135 92.770 C 17.842 91.785,18.140 91.704,21.574 91.575 C 24.537 91.463,24.568 91.457,25.016 91.009 C 25.573 90.452,26.601 90.064,27.916 89.914 C 28.790 89.813,28.988 89.720,29.499 89.167 C 29.906 88.727,30.281 88.500,30.734 88.422 C 31.178 88.345,31.590 88.100,32.035 87.651 C 32.438 87.244,32.957 86.921,33.398 86.803 C 33.952 86.655,34.180 86.480,34.430 86.015 C 34.646 85.612,34.927 85.365,35.292 85.257 C 37.051 84.739,35.965 84.667,26.437 84.667 C 16.207 84.667,16.155 84.662,15.660 83.737 C 15.209 82.894,15.317 78.349,15.801 77.829 L 16.185 77.417 27.134 77.326 C 39.399 77.224,38.833 77.280,38.833 76.166 C 38.833 74.642,39.018 74.667,27.765 74.667 L 18.193 74.667 17.596 73.970 L 17.000 73.273 17.000 70.746 C 17.000 67.184,15.608 67.595,27.912 67.528 L 38.122 67.472 38.495 66.725 C 38.700 66.315,38.841 65.962,38.809 65.942 C 38.177 65.549,36.979 65.500,27.900 65.500 C 16.010 65.500,16.995 65.865,17.005 61.464 C 17.013 57.835,15.894 58.167,28.123 58.164 C 39.577 58.162,38.833 58.231,38.833 57.165 C 38.833 56.035,39.379 56.088,27.381 56.035 L 16.512 55.986 16.020 55.495 C 15.125 54.599,15.055 50.036,15.924 49.167 L 16.341 48.750 20.587 48.692 L 24.833 48.633 24.833 46.733 C 24.833 44.008,24.778 44.047,28.583 44.022 C 30.297 44.010,31.214 44.071,31.500 44.215 M127.845 45.892 C 129.416 46.705,129.329 45.103,129.331 73.391 C 129.334 100.609,129.399 98.808,128.388 99.348 C 128.175 99.463,128.000 99.619,128.000 99.695 C 128.000 100.041,81.782 99.855,80.734 99.504 C 80.193 99.323,79.577 99.173,79.365 99.171 C 78.227 99.159,77.485 98.802,77.220 98.140 C 77.077 97.783,76.833 97.399,76.677 97.287 C 75.789 96.649,75.833 98.020,75.833 71.397 L 75.833 46.844 76.411 46.267 C 77.190 45.488,75.051 45.545,102.583 45.565 C 126.240 45.583,127.274 45.596,127.845 45.892 M84.875 52.943 C 84.577 53.064,84.569 91.502,84.867 91.800 C 85.020 91.953,89.336 92.000,103.280 92.000 L 121.494 92.000 121.584 91.625 C 121.634 91.419,121.654 82.625,121.629 72.083 L 121.583 52.917 103.333 52.888 C 93.296 52.872,84.990 52.897,84.875 52.943 M113.837 53.752 C 114.570 54.131,114.742 54.591,114.833 56.417 L 114.917 58.083 117.000 58.174 C 120.495 58.327,121.000 58.746,121.000 61.492 C 121.000 63.279,120.843 63.670,119.732 64.648 L 118.953 65.333 116.996 65.333 C 114.572 65.333,114.839 64.202,114.834 74.500 C 114.831 84.050,114.707 85.675,113.921 86.496 C 113.534 86.900,113.460 87.160,113.326 88.603 C 113.121 90.812,113.007 90.914,110.582 91.080 C 107.686 91.277,105.205 91.053,104.701 90.549 C 104.039 89.888,104.508 87.685,105.369 87.407 C 106.174 87.147,106.619 66.294,105.835 65.585 C 105.462 65.247,103.892 65.305,102.889 65.692 L 102.361 65.896 102.255 67.656 C 101.952 72.701,101.842 73.301,101.079 74.064 C 100.886 74.257,100.760 74.808,100.665 75.879 C 100.439 78.440,100.022 79.667,99.380 79.667 C 99.259 79.667,99.165 79.866,99.163 80.125 C 99.152 81.737,98.586 83.638,97.994 84.052 C 97.769 84.210,97.607 84.592,97.508 85.202 C 97.303 86.458,96.923 87.299,96.466 87.508 C 96.176 87.640,96.001 87.976,95.749 88.877 C 95.239 90.710,94.724 91.009,91.884 91.125 C 89.284 91.230,87.257 91.067,86.914 90.724 C 86.288 90.097,86.799 87.869,87.744 87.109 C 88.086 86.833,88.334 86.484,88.336 86.276 C 88.342 85.357,89.123 83.833,89.588 83.833 C 89.802 83.833,90.000 83.111,90.000 82.333 C 90.000 81.655,90.427 80.753,90.893 80.448 C 91.180 80.259,91.333 79.967,91.408 79.465 C 91.827 76.643,91.889 76.423,92.424 75.882 C 92.933 75.367,92.961 75.266,93.158 73.215 C 93.438 70.295,93.606 69.527,94.109 68.868 C 94.567 68.268,94.824 66.648,94.602 65.764 L 94.494 65.333 90.955 65.331 C 85.900 65.327,85.341 64.941,85.336 61.450 C 85.331 58.063,84.571 58.285,96.583 58.172 L 106.083 58.083 106.186 56.750 C 106.406 53.873,106.925 53.500,110.708 53.500 C 112.738 53.500,113.463 53.558,113.837 53.752 M146.248 114.292 C 146.217 114.452,146.186 114.607,146.179 114.635 C 146.172 114.663,146.088 114.638,145.992 114.578 C 145.872 114.504,145.879 114.396,146.012 114.235 C 146.268 113.927,146.316 113.939,146.248 114.292 M126.928 142.821 C 126.611 143.171,126.883 143.517,127.215 143.185 C 127.317 143.083,127.329 142.999,127.242 142.997 C 127.155 142.996,127.185 142.930,127.309 142.852 C 127.443 142.767,127.469 142.667,127.373 142.608 C 127.284 142.553,127.084 142.649,126.928 142.821 " stroke="none" fill="#fbd304" fill-rule="evenodd"></path><path id="path2" d="M26.038 45.375 C 25.597 45.916,25.359 46.850,25.446 47.702 C 25.520 48.439,25.476 48.658,25.172 49.042 L 24.809 49.500 21.613 49.516 C 19.855 49.525,18.004 49.619,17.500 49.724 L 16.584 49.917 16.391 50.750 C 15.886 52.938,16.195 54.162,17.378 54.654 C 18.190 54.991,18.466 55.000,28.168 55.000 C 40.300 55.000,39.667 54.881,39.667 57.162 C 39.667 58.999,40.292 58.897,28.592 58.965 C 23.006 58.997,18.310 59.090,18.159 59.171 C 17.526 59.509,17.315 62.221,17.837 63.302 L 18.174 64.000 27.629 64.007 C 38.713 64.016,38.934 64.037,39.337 65.130 C 39.600 65.842,39.559 67.663,39.273 67.950 C 39.199 68.023,34.464 68.121,28.750 68.167 L 18.360 68.250 17.930 68.654 C 17.378 69.173,17.285 71.765,17.787 72.640 C 18.193 73.347,17.966 73.333,29.000 73.333 C 36.765 73.333,38.997 73.379,39.131 73.542 C 39.659 74.183,39.791 76.711,39.335 77.458 L 39.005 78.000 28.794 78.006 C 18.981 78.012,17.013 78.098,16.569 78.542 C 16.301 78.810,16.130 81.239,16.320 82.087 C 16.684 83.713,16.372 83.667,26.908 83.667 C 35.500 83.667,35.802 83.677,36.207 83.996 C 36.890 84.534,36.895 84.956,36.223 85.558 C 35.900 85.847,35.368 86.365,35.041 86.708 C 34.713 87.052,34.341 87.333,34.214 87.333 C 34.087 87.333,33.706 87.603,33.367 87.933 C 33.028 88.263,32.299 88.738,31.747 88.989 C 31.196 89.239,30.534 89.639,30.276 89.878 C 30.018 90.117,29.569 90.362,29.278 90.422 C 28.396 90.603,27.462 90.946,26.532 91.430 C 26.014 91.700,25.084 91.980,24.282 92.108 C 23.531 92.228,22.392 92.444,21.750 92.589 C 21.108 92.734,20.047 92.942,19.391 93.051 C 17.771 93.321,17.122 94.042,16.255 96.532 C 15.869 97.640,16.301 99.412,16.872 99.059 C 16.967 99.001,17.953 98.854,19.064 98.733 C 23.939 98.203,25.031 98.000,25.750 97.491 C 25.979 97.330,27.596 96.887,28.464 96.749 C 29.135 96.642,30.148 96.239,30.333 96.004 C 30.452 95.855,31.988 95.232,32.583 95.092 C 32.858 95.027,33.343 94.774,33.661 94.529 C 34.278 94.054,35.298 93.515,35.599 93.506 C 35.700 93.503,35.925 93.339,36.099 93.142 C 36.274 92.946,36.829 92.521,37.333 92.199 C 38.432 91.496,38.486 91.450,40.521 89.428 C 42.703 87.259,43.093 87.227,44.926 89.066 C 45.602 89.744,46.413 90.458,46.727 90.653 C 47.042 90.847,47.410 91.176,47.546 91.383 C 47.682 91.591,48.134 91.936,48.551 92.150 C 48.968 92.365,49.516 92.756,49.769 93.020 C 50.022 93.284,50.294 93.500,50.374 93.500 C 50.662 93.500,51.977 94.169,52.441 94.551 C 52.703 94.766,53.462 95.115,54.129 95.327 C 54.796 95.538,55.382 95.777,55.432 95.858 C 55.609 96.145,56.767 96.619,58.000 96.910 C 58.688 97.072,59.708 97.418,60.269 97.678 C 60.929 97.985,61.804 98.216,62.756 98.334 C 63.564 98.435,64.281 98.551,64.350 98.593 C 64.607 98.753,66.659 98.695,67.210 98.513 C 67.775 98.327,68.003 98.023,68.419 96.901 C 68.524 96.617,68.840 96.092,69.121 95.734 C 70.342 94.182,69.862 93.470,67.333 93.078 C 66.921 93.015,66.508 92.905,66.417 92.835 C 66.241 92.702,64.988 92.449,62.721 92.089 C 61.962 91.969,60.891 91.653,60.304 91.378 C 59.724 91.105,58.950 90.799,58.583 90.698 C 57.004 90.262,56.633 90.118,56.203 89.777 C 55.568 89.274,55.155 89.060,54.557 88.929 C 54.273 88.867,53.757 88.563,53.409 88.254 C 53.062 87.945,52.477 87.557,52.110 87.391 C 51.742 87.225,51.124 86.788,50.736 86.420 C 50.348 86.051,49.830 85.611,49.585 85.440 C 49.225 85.190,49.161 85.047,49.249 84.690 C 49.520 83.607,48.962 83.667,58.881 83.667 C 70.288 83.667,69.836 83.802,69.626 80.435 C 69.466 77.869,70.229 78.016,57.067 78.007 C 44.890 77.999,46.069 78.231,46.105 75.845 C 46.119 74.860,46.215 74.224,46.401 73.864 L 46.675 73.333 56.296 73.332 C 69.156 73.330,68.167 73.556,68.167 70.623 C 68.167 68.016,68.962 68.183,56.484 68.174 C 45.212 68.166,46.163 68.321,46.124 66.476 C 46.106 65.674,46.191 65.245,46.470 64.708 L 46.840 64.000 57.173 64.000 L 67.505 64.000 67.848 63.458 C 68.287 62.764,68.223 59.818,67.759 59.354 C 67.517 59.112,66.399 59.075,57.202 59.000 C 45.128 58.902,46.081 59.063,46.087 57.121 C 46.089 56.231,46.170 55.797,46.397 55.458 L 46.705 55.000 57.144 54.997 C 70.412 54.994,69.769 55.156,69.617 51.860 C 69.508 49.503,69.716 49.607,64.958 49.530 C 60.210 49.452,60.408 49.546,60.302 47.330 C 60.198 45.153,60.218 45.167,57.157 45.167 L 54.700 45.167 54.335 45.785 C 54.134 46.125,53.899 46.849,53.811 47.393 C 53.458 49.581,53.878 49.500,42.961 49.500 C 32.209 49.500,32.221 49.502,32.052 47.715 C 32.010 47.276,31.785 46.523,31.552 46.042 L 31.127 45.167 28.667 45.167 C 26.901 45.167,26.160 45.225,26.038 45.375 M31.229 46.542 C 31.363 46.840,31.504 47.513,31.542 48.039 C 31.694 50.154,31.761 50.167,42.809 50.167 C 54.146 50.167,54.333 50.127,54.333 47.716 C 54.333 47.313,54.448 46.762,54.588 46.492 L 54.842 46.000 57.214 46.000 L 59.585 46.000 59.780 46.458 C 59.886 46.710,60.000 47.504,60.032 48.221 C 60.120 50.168,60.098 50.158,64.169 50.163 L 67.421 50.167 68.294 50.754 L 69.167 51.342 69.167 52.334 L 69.167 53.325 68.426 53.663 C 67.707 53.990,67.373 54.000,57.202 54.000 C 45.549 54.000,46.553 53.901,45.937 55.117 C 45.619 55.745,45.563 58.091,45.852 58.724 C 46.202 59.493,46.305 59.500,56.599 59.500 C 68.316 59.500,67.667 59.362,67.667 61.853 C 67.667 63.414,68.268 63.333,56.618 63.333 L 46.725 63.333 46.373 63.708 C 45.522 64.617,45.337 67.429,46.075 68.226 L 46.484 68.667 56.534 68.686 C 62.061 68.697,66.808 68.754,67.083 68.813 L 67.583 68.919 67.632 70.582 C 67.698 72.890,68.833 72.667,57.062 72.667 C 51.072 72.667,46.852 72.731,46.602 72.826 C 45.880 73.101,45.667 73.782,45.667 75.820 L 45.667 77.656 46.256 78.244 L 46.844 78.833 57.281 78.833 L 67.719 78.833 68.318 79.283 C 69.133 79.894,69.161 79.953,69.164 81.012 L 69.167 81.941 68.440 82.304 C 67.722 82.663,67.614 82.667,58.815 82.674 C 47.599 82.683,47.967 82.618,48.488 84.498 C 48.825 85.712,49.094 86.076,49.797 86.268 C 50.007 86.326,50.288 86.585,50.423 86.845 C 50.571 87.131,50.966 87.450,51.422 87.652 C 51.836 87.835,52.358 88.202,52.581 88.467 C 52.858 88.796,53.358 89.067,54.152 89.317 C 54.913 89.557,55.350 89.789,55.412 89.985 C 55.533 90.366,56.469 90.773,57.729 90.993 C 58.372 91.105,58.844 91.298,59.102 91.556 C 59.539 91.994,60.891 92.379,62.860 92.628 C 63.662 92.730,64.313 92.915,64.611 93.127 C 65.075 93.457,67.454 94.000,68.438 94.000 C 69.397 94.000,69.549 94.449,68.819 95.130 C 68.509 95.420,68.162 96.028,67.943 96.662 C 67.543 97.824,66.973 98.162,65.417 98.161 C 64.479 98.161,61.793 97.703,61.678 97.525 C 61.548 97.320,60.080 96.667,59.752 96.667 C 58.799 96.667,56.881 96.097,56.393 95.668 C 56.099 95.410,55.609 95.149,55.304 95.089 C 54.999 95.029,54.563 94.915,54.333 94.836 C 54.104 94.758,53.723 94.652,53.487 94.601 C 53.248 94.549,52.973 94.323,52.868 94.092 C 52.761 93.858,52.475 93.625,52.214 93.560 C 51.575 93.400,50.372 92.858,50.305 92.699 C 50.200 92.452,49.081 91.710,48.665 91.612 C 48.435 91.558,48.113 91.288,47.950 91.012 C 47.787 90.735,47.393 90.386,47.074 90.234 C 46.756 90.083,46.377 89.760,46.233 89.516 C 46.089 89.272,45.752 88.947,45.484 88.793 C 45.216 88.640,44.842 88.251,44.653 87.931 C 44.255 87.257,44.099 87.192,42.759 87.143 C 41.837 87.110,41.745 87.141,41.426 87.590 C 41.237 87.856,40.858 88.288,40.583 88.549 C 40.308 88.811,39.971 89.146,39.833 89.294 C 39.696 89.442,39.396 89.737,39.167 89.950 C 38.938 90.163,38.428 90.636,38.035 91.002 C 37.642 91.367,37.211 91.667,37.077 91.667 C 36.943 91.667,36.541 91.959,36.183 92.317 C 35.826 92.674,35.357 93.017,35.141 93.077 C 34.751 93.187,34.274 93.379,33.515 93.731 C 33.295 93.833,33.080 94.049,33.037 94.210 C 32.995 94.372,32.763 94.546,32.522 94.599 C 32.281 94.651,31.896 94.760,31.667 94.840 C 31.438 94.921,30.960 95.037,30.606 95.099 C 30.251 95.161,29.711 95.431,29.405 95.699 C 28.934 96.113,28.555 96.238,26.912 96.522 C 25.673 96.736,24.692 97.009,24.195 97.278 C 22.772 98.049,16.802 98.548,16.560 97.916 C 16.423 97.560,16.602 96.965,16.962 96.579 C 17.132 96.397,17.412 95.836,17.585 95.332 C 18.033 94.027,18.074 94.001,20.149 93.745 C 21.533 93.574,22.141 93.422,22.520 93.152 C 22.854 92.915,23.470 92.733,24.307 92.624 C 26.137 92.388,27.214 92.066,27.709 91.607 C 27.947 91.386,28.541 91.116,29.029 91.005 C 30.437 90.686,30.471 90.672,31.065 90.114 C 31.376 89.822,32.020 89.447,32.496 89.280 C 33.101 89.068,33.446 88.828,33.640 88.488 C 33.796 88.213,34.154 87.922,34.462 87.820 C 34.762 87.720,35.243 87.345,35.531 86.986 C 35.820 86.627,36.143 86.333,36.249 86.333 C 36.580 86.333,37.131 85.616,37.402 84.833 C 38.164 82.634,38.320 82.667,27.012 82.667 L 18.160 82.667 17.496 82.228 C 16.523 81.583,16.524 80.526,17.500 79.520 L 18.166 78.833 27.926 78.833 C 40.688 78.833,40.000 79.014,40.000 75.667 C 40.000 73.813,39.974 73.655,39.598 73.218 L 39.196 72.750 28.813 72.700 C 21.739 72.666,18.362 72.593,18.215 72.471 C 17.830 72.151,17.921 69.054,18.322 68.839 C 18.535 68.726,22.144 68.667,28.883 68.667 C 41.226 68.667,40.069 68.926,39.974 66.182 C 39.867 63.082,40.882 63.333,28.451 63.333 C 17.187 63.333,18.000 63.447,18.000 61.869 C 18.000 60.613,18.300 59.679,18.736 59.580 C 18.927 59.537,23.596 59.482,29.112 59.459 L 39.140 59.417 39.570 59.013 C 40.136 58.481,40.211 55.975,39.691 54.997 C 39.144 53.972,39.526 54.005,28.366 54.002 L 18.149 54.000 17.493 53.625 C 16.471 53.042,16.512 51.903,17.592 50.883 L 18.350 50.167 21.524 50.167 C 25.641 50.167,26.243 49.826,25.901 47.689 C 25.834 47.270,25.878 46.835,26.021 46.512 L 26.248 46.000 28.616 46.000 L 30.984 46.000 31.229 46.542 M77.875 46.529 L 77.333 46.864 77.333 71.512 C 77.333 98.231,77.292 96.958,78.190 97.912 C 78.871 98.635,79.208 98.645,104.132 98.656 C 127.845 98.667,127.847 98.667,128.215 98.324 L 128.583 97.981 128.583 73.199 C 128.583 46.593,128.605 47.333,127.823 47.333 C 127.766 47.333,127.507 47.152,127.249 46.930 C 126.352 46.159,126.578 46.166,101.885 46.180 C 78.684 46.194,78.410 46.198,77.875 46.529 M126.559 47.273 C 126.801 47.561,127.189 47.845,127.422 47.903 C 127.663 47.964,127.914 48.191,128.006 48.432 C 128.260 49.101,128.222 97.712,127.967 97.967 C 127.813 98.120,122.310 98.167,104.212 98.167 C 78.691 98.167,78.573 98.163,78.398 97.336 C 78.350 97.105,78.240 96.744,78.155 96.534 C 77.870 95.829,77.955 47.931,78.243 47.242 L 78.485 46.661 102.302 46.706 L 126.118 46.750 126.559 47.273 M84.403 50.995 C 84.212 51.072,83.743 51.490,83.361 51.924 L 82.667 52.714 82.669 72.565 C 82.672 94.398,82.598 92.965,83.753 93.619 L 84.417 93.995 103.083 93.994 C 124.509 93.992,122.463 94.160,122.684 92.393 C 122.882 90.799,122.860 53.474,122.660 52.541 C 122.564 52.096,122.299 51.530,122.070 51.283 L 121.653 50.833 103.202 50.844 C 93.053 50.850,84.594 50.918,84.403 50.995 M121.954 52.284 C 122.261 52.753,122.524 88.453,122.244 91.632 C 122.060 93.719,124.291 93.500,103.244 93.500 C 82.635 93.500,84.248 93.612,83.775 92.148 C 83.526 91.375,83.500 89.505,83.500 72.231 L 83.500 53.168 84.103 52.500 L 84.705 51.833 103.182 51.833 L 121.659 51.833 121.954 52.284 M108.476 54.553 C 108.032 54.890,107.667 55.972,107.667 56.948 C 107.667 58.977,108.119 58.891,96.879 58.996 L 87.509 59.083 87.137 59.455 C 86.818 59.775,86.756 60.048,86.697 61.398 L 86.628 62.970 87.339 63.485 L 88.050 64.000 91.338 64.000 C 94.991 64.000,94.865 63.962,95.216 65.172 C 95.432 65.919,95.164 69.863,94.848 70.583 C 94.325 71.775,93.995 73.038,93.571 75.465 C 93.432 76.261,93.165 77.108,92.942 77.465 C 92.729 77.805,92.385 78.758,92.178 79.583 C 91.972 80.408,91.596 81.421,91.343 81.833 C 90.859 82.622,90.600 83.253,90.417 84.083 C 90.357 84.358,90.129 84.818,89.911 85.105 C 89.512 85.628,88.667 87.346,88.667 87.632 C 88.667 87.716,88.498 87.967,88.292 88.190 C 86.592 90.028,87.077 90.500,90.667 90.500 C 92.973 90.500,94.000 90.285,94.000 89.803 C 94.000 89.734,94.207 89.467,94.460 89.208 C 94.713 88.949,95.127 88.209,95.381 87.562 C 95.634 86.916,95.985 86.233,96.161 86.045 C 96.336 85.857,96.643 85.151,96.842 84.476 C 97.042 83.802,97.409 82.875,97.659 82.417 C 97.909 81.958,98.279 80.881,98.481 80.022 C 98.683 79.163,99.022 78.113,99.235 77.688 C 99.613 76.935,100.032 75.247,100.253 73.594 C 100.314 73.141,100.539 72.278,100.754 71.677 C 101.161 70.536,101.579 68.233,101.734 66.269 C 101.888 64.328,102.308 64.000,104.636 64.001 C 107.775 64.002,107.708 63.775,107.627 74.066 L 107.563 82.250 107.045 84.250 C 106.760 85.350,106.433 86.700,106.319 87.250 C 106.097 88.322,105.912 88.778,105.557 89.133 C 104.692 89.999,105.731 90.417,108.750 90.417 C 112.114 90.417,112.418 90.168,112.821 87.083 C 113.002 85.700,113.349 83.796,113.657 82.500 C 113.762 82.058,113.875 78.500,113.933 73.833 C 114.062 63.509,113.924 64.000,116.695 64.000 L 118.435 64.000 118.967 63.450 C 119.471 62.931,119.500 62.832,119.500 61.642 C 119.500 59.283,119.202 59.000,116.716 59.000 C 114.646 59.000,114.000 58.619,114.000 57.399 C 114.000 56.528,113.687 55.164,113.428 54.905 C 112.900 54.377,109.065 54.104,108.476 54.553 M112.556 55.778 C 113.102 56.325,113.167 56.480,113.167 57.255 C 113.167 58.926,114.108 59.500,116.845 59.500 L 118.443 59.500 118.638 60.346 C 119.224 62.883,118.908 63.333,116.542 63.333 C 113.223 63.333,113.166 63.466,113.169 71.210 C 113.170 74.349,113.095 77.817,113.003 78.917 C 112.157 89.029,112.241 88.513,111.266 89.555 L 110.825 90.026 108.593 89.971 C 106.086 89.910,106.064 89.902,106.413 89.233 C 106.551 88.967,106.665 88.600,106.666 88.417 C 106.668 87.621,107.168 85.851,107.607 85.083 L 108.083 84.250 108.083 74.296 L 108.083 64.341 107.627 63.885 C 107.186 63.444,107.102 63.427,105.008 63.362 C 101.684 63.258,101.417 63.465,101.237 66.283 C 101.136 67.866,100.829 69.346,100.523 69.730 C 100.237 70.088,99.851 71.760,99.749 73.083 C 99.611 74.868,99.354 76.013,99.000 76.417 C 98.560 76.919,98.383 77.340,98.263 78.167 C 97.973 80.169,97.751 81.012,97.406 81.413 C 96.938 81.958,96.758 82.436,96.418 84.042 C 96.265 84.761,96.057 85.336,95.947 85.339 C 95.552 85.349,94.667 87.227,94.667 88.054 C 94.667 88.186,94.476 88.420,94.242 88.573 C 94.009 88.726,93.729 89.053,93.621 89.300 C 93.322 89.982,93.266 89.995,90.552 89.997 C 87.646 90.000,87.495 89.927,88.475 88.986 C 89.026 88.456,89.192 88.148,89.358 87.345 C 89.503 86.640,89.663 86.302,89.916 86.167 C 90.393 85.912,90.812 85.082,90.937 84.143 C 91.004 83.641,91.194 83.205,91.478 82.898 C 92.086 82.245,92.295 81.796,92.422 80.876 C 92.570 79.797,92.844 78.983,93.195 78.579 C 93.630 78.077,93.937 77.068,94.070 75.703 C 94.199 74.374,94.424 73.560,94.774 73.153 C 95.222 72.632,95.501 71.173,95.664 68.484 C 95.913 64.390,95.913 64.387,95.346 63.821 L 94.859 63.333 91.471 63.328 C 87.067 63.321,86.781 63.109,87.647 60.500 L 87.951 59.583 97.434 59.497 C 102.649 59.450,107.067 59.343,107.250 59.259 C 107.923 58.951,108.167 58.489,108.167 57.518 C 108.167 57.006,108.298 56.268,108.458 55.877 L 108.750 55.168 110.347 55.167 L 111.944 55.167 112.556 55.778 " stroke="none" fill="#695904" fill-rule="evenodd"></path><path id="path3" d="M134.625 6.146 C 134.923 6.338,135.167 6.574,135.167 6.671 C 135.167 6.767,135.003 6.693,134.802 6.506 C 134.430 6.160,134.159 6.067,134.176 6.292 C 134.201 6.625,135.132 7.164,135.232 6.903 C 135.342 6.617,135.075 6.000,134.841 6.000 C 134.760 6.000,134.557 5.955,134.389 5.899 C 134.221 5.843,134.327 5.955,134.625 6.146 M25.666 45.084 C 25.329 45.443,25.264 45.709,25.210 46.959 C 25.107 49.310,25.467 49.127,20.817 49.193 L 16.841 49.250 16.379 49.712 C 15.729 50.362,15.667 53.734,16.289 54.606 C 16.838 55.375,16.829 55.374,28.305 55.483 C 40.379 55.598,39.333 55.437,39.333 57.178 C 39.333 58.687,40.178 58.572,28.421 58.667 C 16.207 58.765,17.448 58.498,17.359 61.043 C 17.288 63.084,17.385 63.629,17.923 64.210 L 18.347 64.667 27.618 64.667 C 39.562 64.667,39.333 64.628,39.333 66.669 C 39.333 67.982,39.944 67.910,28.338 67.964 C 16.061 68.022,17.333 67.707,17.333 70.683 C 17.333 72.546,17.354 72.666,17.765 73.154 L 18.196 73.667 27.825 73.667 C 40.142 73.667,39.113 73.500,39.285 75.523 C 39.485 77.889,40.522 77.690,27.379 77.815 L 16.676 77.917 16.296 78.296 C 15.731 78.862,15.720 82.474,16.281 83.261 C 16.896 84.123,17.412 84.167,27.084 84.167 C 36.278 84.167,36.333 84.171,36.333 84.892 C 36.333 85.093,35.758 85.667,35.556 85.667 C 35.497 85.667,35.188 85.971,34.869 86.343 C 34.551 86.715,34.011 87.132,33.669 87.269 C 33.327 87.405,32.949 87.701,32.829 87.925 C 32.709 88.150,32.529 88.336,32.430 88.339 C 32.331 88.342,31.950 88.490,31.583 88.667 C 31.217 88.844,30.828 88.991,30.720 88.994 C 30.612 88.997,30.379 89.185,30.201 89.411 C 29.888 89.809,29.033 90.175,27.845 90.421 C 27.531 90.486,26.923 90.756,26.494 91.020 C 25.653 91.537,24.889 91.727,22.167 92.094 C 17.614 92.710,17.897 92.574,16.544 94.791 C 15.605 96.331,15.490 98.683,16.321 99.356 C 16.675 99.643,16.778 99.633,19.833 98.996 C 20.246 98.910,21.183 98.795,21.917 98.741 C 23.293 98.638,25.686 98.197,25.833 98.018 C 26.046 97.760,27.095 97.323,27.722 97.232 C 28.953 97.053,30.237 96.638,30.750 96.254 C 31.025 96.049,31.827 95.686,32.532 95.450 C 33.237 95.213,33.961 94.872,34.140 94.693 C 34.319 94.514,34.921 94.163,35.477 93.914 C 36.033 93.664,36.604 93.283,36.746 93.067 C 36.887 92.850,37.330 92.525,37.729 92.343 C 38.152 92.150,39.246 91.244,40.350 90.173 C 42.837 87.758,43.016 87.735,44.900 89.583 C 45.601 90.271,46.254 90.833,46.351 90.833 C 46.448 90.833,46.800 91.114,47.134 91.457 C 47.467 91.800,48.001 92.221,48.320 92.392 C 48.639 92.563,49.092 92.907,49.325 93.156 C 49.559 93.405,50.125 93.747,50.583 93.915 C 51.042 94.083,51.642 94.425,51.917 94.674 C 52.192 94.922,52.942 95.295,53.583 95.501 C 54.225 95.707,54.994 96.058,55.293 96.280 C 55.833 96.683,56.840 97.035,58.053 97.243 C 58.403 97.303,59.028 97.541,59.441 97.772 C 60.390 98.302,61.553 98.599,63.250 98.744 C 63.983 98.806,64.865 98.939,65.209 99.039 C 66.654 99.457,68.138 98.773,68.515 97.515 C 68.630 97.133,68.908 96.622,69.134 96.378 C 70.445 94.963,70.358 93.000,68.983 93.000 C 68.806 93.000,68.532 92.931,68.373 92.848 C 67.879 92.587,65.985 92.178,64.417 91.992 C 62.276 91.739,61.539 91.554,60.500 91.009 C 59.996 90.745,59.283 90.478,58.917 90.417 C 57.943 90.256,57.094 89.903,56.309 89.335 C 55.928 89.059,55.512 88.833,55.385 88.833 C 55.049 88.833,53.933 88.237,53.665 87.915 C 53.540 87.764,53.014 87.426,52.497 87.165 C 51.980 86.904,51.289 86.442,50.961 86.137 C 50.633 85.833,50.167 85.433,49.926 85.250 C 49.510 84.934,49.501 84.897,49.753 84.542 L 50.019 84.167 58.830 84.167 C 69.012 84.167,69.207 84.147,69.686 83.091 C 70.025 82.346,70.130 79.530,69.847 78.787 C 69.462 77.774,70.202 77.833,57.992 77.833 L 46.842 77.833 46.566 77.300 C 46.266 76.721,46.312 75.011,46.650 74.125 L 46.825 73.667 57.090 73.667 C 63.812 73.667,67.466 73.607,67.676 73.495 C 68.622 72.988,68.916 69.265,68.076 68.424 L 67.652 68.000 57.263 68.000 C 48.167 68.000,46.848 67.968,46.664 67.746 C 46.395 67.423,46.373 65.725,46.629 65.125 L 46.825 64.667 56.473 64.667 C 67.480 64.667,67.478 64.667,68.025 63.938 C 68.673 63.076,68.619 59.645,67.949 59.069 L 67.481 58.667 57.167 58.667 L 46.852 58.667 46.593 58.296 C 46.291 57.865,46.254 56.777,46.516 56.025 L 46.699 55.500 57.236 55.500 C 70.710 55.500,70.000 55.688,70.000 52.114 C 70.000 49.238,69.875 49.169,64.631 49.168 C 60.429 49.167,60.667 49.275,60.667 47.352 C 60.667 46.185,60.486 45.510,60.025 44.958 C 59.656 44.516,54.813 44.520,54.370 44.963 C 53.969 45.365,53.511 46.607,53.391 47.621 C 53.205 49.195,53.399 49.167,42.926 49.167 C 34.619 49.167,33.980 49.146,33.304 48.856 L 32.580 48.546 32.290 47.163 C 32.104 46.278,31.846 45.579,31.574 45.223 L 31.150 44.667 28.604 44.667 C 26.102 44.667,26.051 44.674,25.666 45.084 M31.552 46.042 C 31.785 46.523,32.010 47.276,32.052 47.715 C 32.221 49.502,32.209 49.500,42.961 49.500 C 53.878 49.500,53.458 49.581,53.811 47.393 C 53.899 46.849,54.134 46.125,54.335 45.785 L 54.700 45.167 57.157 45.167 C 60.218 45.167,60.198 45.153,60.302 47.330 C 60.408 49.546,60.210 49.452,64.958 49.530 C 69.716 49.607,69.508 49.503,69.617 51.860 C 69.769 55.156,70.412 54.994,57.144 54.997 L 46.705 55.000 46.397 55.458 C 46.170 55.797,46.089 56.231,46.087 57.121 C 46.081 59.063,45.128 58.902,57.202 59.000 C 66.399 59.075,67.517 59.112,67.759 59.354 C 68.223 59.818,68.287 62.764,67.848 63.458 L 67.505 64.000 57.173 64.000 L 46.840 64.000 46.470 64.708 C 46.191 65.245,46.106 65.674,46.124 66.476 C 46.163 68.321,45.212 68.166,56.484 68.174 C 68.962 68.183,68.167 68.016,68.167 70.623 C 68.167 73.556,69.156 73.330,56.296 73.332 L 46.675 73.333 46.401 73.864 C 46.215 74.224,46.119 74.860,46.105 75.845 C 46.069 78.231,44.890 77.999,57.067 78.007 C 70.229 78.016,69.466 77.869,69.626 80.435 C 69.836 83.802,70.288 83.667,58.881 83.667 C 48.962 83.667,49.520 83.607,49.249 84.690 C 49.161 85.047,49.225 85.190,49.585 85.440 C 49.830 85.611,50.348 86.051,50.736 86.420 C 51.124 86.788,51.742 87.225,52.110 87.391 C 52.477 87.557,53.062 87.945,53.409 88.254 C 53.757 88.563,54.273 88.867,54.557 88.929 C 55.155 89.060,55.568 89.274,56.203 89.777 C 56.633 90.118,57.004 90.262,58.583 90.698 C 58.950 90.799,59.724 91.105,60.304 91.378 C 60.891 91.653,61.962 91.969,62.721 92.089 C 64.988 92.449,66.241 92.702,66.417 92.835 C 66.508 92.905,66.921 93.015,67.333 93.078 C 69.862 93.470,70.342 94.182,69.121 95.734 C 68.840 96.092,68.524 96.617,68.419 96.901 C 68.003 98.023,67.775 98.327,67.210 98.513 C 66.659 98.695,64.607 98.753,64.350 98.593 C 64.281 98.551,63.564 98.435,62.756 98.334 C 61.804 98.216,60.929 97.985,60.269 97.678 C 59.708 97.418,58.688 97.072,58.000 96.910 C 56.767 96.619,55.609 96.145,55.432 95.858 C 55.382 95.777,54.796 95.538,54.129 95.327 C 53.462 95.115,52.703 94.766,52.441 94.551 C 51.977 94.169,50.662 93.500,50.374 93.500 C 50.294 93.500,50.022 93.284,49.769 93.020 C 49.516 92.756,48.968 92.365,48.551 92.150 C 48.134 91.936,47.682 91.591,47.546 91.383 C 47.410 91.176,47.042 90.847,46.727 90.653 C 46.413 90.458,45.602 89.744,44.926 89.066 C 43.093 87.227,42.703 87.259,40.521 89.428 C 38.486 91.450,38.432 91.496,37.333 92.199 C 36.829 92.521,36.274 92.946,36.099 93.142 C 35.925 93.339,35.700 93.503,35.599 93.506 C 35.298 93.515,34.278 94.054,33.661 94.529 C 33.343 94.774,32.858 95.027,32.583 95.092 C 31.988 95.232,30.452 95.855,30.333 96.004 C 30.148 96.239,29.135 96.642,28.464 96.749 C 27.596 96.887,25.979 97.330,25.750 97.491 C 25.031 98.000,23.939 98.203,19.064 98.733 C 17.953 98.854,16.967 99.001,16.872 99.059 C 16.301 99.412,15.869 97.640,16.255 96.532 C 17.122 94.042,17.771 93.321,19.391 93.051 C 20.047 92.942,21.108 92.734,21.750 92.589 C 22.392 92.444,23.531 92.228,24.282 92.108 C 25.084 91.980,26.014 91.700,26.532 91.430 C 27.462 90.946,28.396 90.603,29.278 90.422 C 29.569 90.362,30.018 90.117,30.276 89.878 C 30.534 89.639,31.196 89.239,31.747 88.989 C 32.299 88.738,33.028 88.263,33.367 87.933 C 33.706 87.603,34.087 87.333,34.214 87.333 C 34.341 87.333,34.713 87.052,35.041 86.708 C 35.368 86.365,35.900 85.847,36.223 85.558 C 36.895 84.956,36.890 84.534,36.207 83.996 C 35.802 83.677,35.500 83.667,26.908 83.667 C 16.372 83.667,16.684 83.713,16.320 82.087 C 16.130 81.239,16.301 78.810,16.569 78.542 C 17.013 78.098,18.981 78.012,28.794 78.006 L 39.005 78.000 39.335 77.458 C 39.791 76.711,39.659 74.183,39.131 73.542 C 38.997 73.379,36.765 73.333,29.000 73.333 C 17.966 73.333,18.193 73.347,17.787 72.640 C 17.285 71.765,17.378 69.173,17.930 68.654 L 18.360 68.250 28.750 68.167 C 34.464 68.121,39.199 68.023,39.273 67.950 C 39.559 67.663,39.600 65.842,39.337 65.130 C 38.934 64.037,38.713 64.016,27.629 64.007 L 18.174 64.000 17.837 63.302 C 17.315 62.221,17.526 59.509,18.159 59.171 C 18.310 59.090,23.006 58.997,28.592 58.965 C 40.292 58.897,39.667 58.999,39.667 57.162 C 39.667 54.881,40.300 55.000,28.168 55.000 C 18.466 55.000,18.190 54.991,17.378 54.654 C 16.195 54.162,15.886 52.938,16.391 50.750 L 16.584 49.917 17.500 49.724 C 18.004 49.619,19.855 49.525,21.613 49.516 L 24.809 49.500 25.172 49.042 C 25.476 48.658,25.520 48.439,25.446 47.702 C 25.359 46.850,25.597 45.916,26.038 45.375 C 26.160 45.225,26.901 45.167,28.667 45.167 L 31.127 45.167 31.552 46.042 M77.498 46.311 C 76.635 46.774,76.657 46.066,76.706 72.035 L 76.750 95.917 77.125 96.699 C 77.331 97.130,77.500 97.547,77.500 97.626 C 77.500 98.276,78.447 98.666,80.425 98.830 C 82.565 99.007,127.309 99.069,127.956 98.895 C 128.162 98.840,128.482 98.548,128.669 98.246 C 129.126 97.506,129.124 48.609,128.667 47.817 C 128.394 47.344,127.462 46.494,126.886 46.191 C 126.166 45.813,78.209 45.930,77.498 46.311 M126.066 46.346 C 126.458 46.445,126.990 46.708,127.249 46.930 C 127.507 47.152,127.766 47.333,127.823 47.333 C 128.605 47.333,128.583 46.593,128.583 73.199 L 128.583 97.981 128.215 98.324 C 127.847 98.667,127.845 98.667,104.132 98.656 C 79.208 98.645,78.871 98.635,78.190 97.912 C 77.292 96.958,77.333 98.231,77.333 71.512 L 77.333 46.864 77.875 46.529 C 78.511 46.136,124.538 45.962,126.066 46.346 M84.103 52.500 L 83.500 53.168 83.500 72.231 C 83.500 89.505,83.526 91.375,83.775 92.148 C 84.248 93.612,82.635 93.500,103.244 93.500 C 124.291 93.500,122.060 93.719,122.244 91.632 C 122.524 88.453,122.261 52.753,121.954 52.284 L 121.659 51.833 103.182 51.833 L 84.705 51.833 84.103 52.500 M121.768 52.625 C 122.077 53.032,122.108 91.594,121.800 92.447 L 121.600 93.000 103.154 93.000 L 84.708 93.000 84.354 92.177 C 84.000 91.355,84.000 91.354,84.000 72.297 L 84.000 53.239 84.364 52.786 L 84.729 52.333 103.138 52.333 C 120.475 52.333,121.559 52.350,121.768 52.625 M108.126 54.293 C 107.575 54.634,107.167 55.866,107.165 57.192 C 107.163 58.644,107.714 58.566,96.833 58.665 C 85.443 58.768,86.294 58.578,86.069 61.063 C 85.803 63.999,86.564 64.500,91.285 64.500 L 94.491 64.500 94.761 65.021 C 95.182 65.835,94.884 69.901,94.354 70.566 C 94.087 70.900,93.687 72.558,93.505 74.083 C 93.321 75.622,93.105 76.394,92.735 76.833 C 92.472 77.145,92.058 78.367,91.916 79.250 C 91.770 80.151,91.515 80.788,90.979 81.585 C 90.732 81.953,90.475 82.546,90.408 82.903 C 90.341 83.260,90.185 83.747,90.061 83.984 C 89.937 84.222,89.835 84.504,89.834 84.611 C 89.834 84.718,89.774 84.831,89.702 84.861 C 89.484 84.954,88.833 85.952,88.833 86.195 C 88.833 86.527,88.210 87.635,87.737 88.143 C 86.098 89.905,87.076 90.833,90.572 90.833 C 93.739 90.833,94.968 90.158,95.510 88.119 C 95.613 87.733,95.897 87.155,96.140 86.835 C 96.691 86.112,97.000 85.534,97.000 85.227 C 97.000 84.833,97.643 83.136,97.900 82.851 C 98.191 82.528,98.661 81.222,98.664 80.727 C 98.668 80.232,99.180 78.635,99.433 78.333 C 99.764 77.938,100.127 76.679,100.250 75.500 C 100.365 74.393,100.773 72.716,101.000 72.417 C 101.332 71.980,101.676 70.170,101.838 68.010 C 102.032 65.435,102.238 64.833,102.926 64.833 C 103.139 64.833,103.360 64.758,103.417 64.667 C 103.704 64.202,105.696 64.484,106.441 65.094 L 107.167 65.689 107.159 73.303 C 107.155 77.555,107.081 81.248,106.991 81.667 C 106.902 82.079,106.723 83.054,106.592 83.833 C 105.952 87.662,105.816 88.242,105.483 88.552 C 104.001 89.933,105.276 90.833,108.713 90.833 C 112.222 90.833,112.512 90.614,113.084 87.522 C 113.298 86.364,113.640 84.892,113.845 84.250 C 114.205 83.119,114.219 82.821,114.287 74.418 C 114.356 65.976,114.367 65.736,114.709 65.126 L 115.061 64.500 116.729 64.500 C 119.426 64.500,120.096 63.816,119.970 61.190 C 119.863 58.940,119.661 58.769,117.038 58.695 C 114.505 58.623,114.404 58.545,114.301 56.591 C 114.181 54.303,113.728 53.997,110.481 54.004 C 108.990 54.008,108.485 54.070,108.126 54.293 M112.468 54.530 C 113.610 54.817,114.000 55.547,114.000 57.399 C 114.000 58.619,114.646 59.000,116.716 59.000 C 119.202 59.000,119.500 59.283,119.500 61.642 C 119.500 62.832,119.471 62.931,118.967 63.450 L 118.435 64.000 116.695 64.000 C 113.924 64.000,114.062 63.509,113.933 73.833 C 113.875 78.500,113.762 82.058,113.657 82.500 C 113.349 83.796,113.002 85.700,112.821 87.083 C 112.418 90.168,112.114 90.417,108.750 90.417 C 105.731 90.417,104.692 89.999,105.557 89.133 C 105.912 88.778,106.097 88.322,106.319 87.250 C 106.433 86.700,106.760 85.350,107.045 84.250 L 107.563 82.250 107.627 74.066 C 107.708 63.775,107.775 64.002,104.636 64.001 C 102.308 64.000,101.888 64.328,101.734 66.269 C 101.579 68.233,101.161 70.536,100.754 71.677 C 100.539 72.278,100.314 73.141,100.253 73.594 C 100.032 75.247,99.613 76.935,99.235 77.688 C 99.022 78.113,98.683 79.163,98.481 80.022 C 98.279 80.881,97.909 81.958,97.659 82.417 C 97.409 82.875,97.042 83.802,96.842 84.476 C 96.643 85.151,96.336 85.857,96.161 86.045 C 95.985 86.233,95.634 86.916,95.381 87.562 C 95.127 88.209,94.713 88.949,94.460 89.208 C 94.207 89.467,94.000 89.734,94.000 89.803 C 94.000 90.285,92.973 90.500,90.667 90.500 C 87.077 90.500,86.592 90.028,88.292 88.190 C 88.498 87.967,88.667 87.716,88.667 87.632 C 88.667 87.346,89.512 85.628,89.911 85.105 C 90.129 84.818,90.357 84.358,90.417 84.083 C 90.600 83.253,90.859 82.622,91.343 81.833 C 91.596 81.421,91.972 80.408,92.178 79.583 C 92.385 78.758,92.729 77.805,92.942 77.465 C 93.165 77.108,93.432 76.261,93.571 75.465 C 93.995 73.038,94.325 71.775,94.848 70.583 C 95.164 69.863,95.432 65.919,95.216 65.172 C 94.865 63.962,94.991 64.000,91.338 64.000 L 88.050 64.000 87.339 63.485 L 86.628 62.970 86.697 61.398 C 86.756 60.048,86.818 59.775,87.137 59.455 L 87.509 59.083 96.879 58.996 C 108.119 58.891,107.667 58.977,107.667 56.948 C 107.667 55.972,108.032 54.890,108.476 54.553 C 108.831 54.282,111.424 54.267,112.468 54.530 M134.600 137.778 C 134.157 138.159,134.141 138.500,134.567 138.500 C 134.808 138.500,135.235 138.053,135.375 137.653 C 135.511 137.266,135.122 137.329,134.600 137.778 " stroke="none" fill="#8e7604" fill-rule="evenodd"></path><path id="path4" d="M129.969 3.297 C 130.215 3.552,130.448 3.739,130.487 3.713 C 130.583 3.648,129.806 2.833,129.648 2.833 C 129.578 2.833,129.723 3.042,129.969 3.297 M134.210 6.800 C 134.222 6.966,134.368 7.111,134.533 7.123 C 134.880 7.149,134.919 6.986,134.633 6.700 C 134.347 6.414,134.184 6.453,134.210 6.800 M137.750 9.604 C 138.025 9.871,138.279 10.072,138.315 10.049 C 138.428 9.978,137.960 9.490,137.597 9.300 C 137.361 9.176,137.410 9.274,137.750 9.604 M25.777 44.118 C 24.977 44.324,24.833 44.722,24.833 46.733 L 24.833 48.633 20.587 48.692 L 16.341 48.750 15.924 49.167 C 15.055 50.036,15.125 54.599,16.020 55.495 L 16.512 55.986 27.381 56.035 C 39.379 56.088,38.833 56.035,38.833 57.165 C 38.833 58.231,39.577 58.162,28.123 58.164 C 15.894 58.167,17.013 57.835,17.005 61.464 C 16.995 65.865,16.010 65.500,27.900 65.500 C 36.979 65.500,38.177 65.549,38.809 65.942 C 38.841 65.962,38.700 66.315,38.495 66.725 L 38.122 67.472 27.912 67.528 C 15.608 67.595,17.000 67.184,17.000 70.746 L 17.000 73.273 17.596 73.970 L 18.193 74.667 27.765 74.667 C 39.018 74.667,38.833 74.642,38.833 76.166 C 38.833 77.280,39.399 77.224,27.134 77.326 L 16.185 77.417 15.801 77.829 C 15.317 78.349,15.209 82.894,15.660 83.737 C 16.155 84.662,16.207 84.667,26.437 84.667 C 35.965 84.667,37.051 84.739,35.292 85.257 C 34.927 85.365,34.646 85.612,34.430 86.015 C 34.180 86.480,33.952 86.655,33.398 86.803 C 32.957 86.921,32.438 87.244,32.035 87.651 C 31.590 88.100,31.178 88.345,30.734 88.422 C 30.281 88.500,29.906 88.727,29.499 89.167 C 28.988 89.720,28.790 89.813,27.916 89.914 C 26.601 90.064,25.573 90.452,25.016 91.009 C 24.568 91.457,24.537 91.463,21.574 91.575 C 18.140 91.704,17.842 91.785,17.135 92.770 C 16.848 93.168,16.490 93.534,16.339 93.582 C 15.759 93.766,15.457 94.935,15.371 97.332 L 15.289 99.612 15.795 99.973 C 16.662 100.590,19.705 100.309,20.561 99.532 C 20.855 99.266,21.366 99.174,23.490 99.005 C 26.342 98.779,26.666 98.698,27.249 98.069 C 27.587 97.704,27.912 97.595,29.269 97.393 C 30.863 97.156,31.638 96.820,31.974 96.219 C 32.061 96.064,32.500 95.897,33.053 95.811 C 34.008 95.661,35.167 95.103,35.167 94.794 C 35.167 94.534,35.702 94.178,36.103 94.172 C 36.524 94.166,37.333 93.565,37.333 93.258 C 37.333 93.138,37.577 92.948,37.875 92.836 C 39.020 92.403,39.562 92.067,39.817 91.631 C 39.963 91.382,40.269 91.082,40.497 90.964 C 41.065 90.671,41.499 90.294,41.506 90.088 C 41.541 88.992,43.419 88.804,44.127 89.827 C 44.378 90.189,44.808 90.598,45.083 90.734 C 45.358 90.870,45.941 91.320,46.377 91.735 C 46.855 92.188,47.441 92.561,47.848 92.671 C 48.362 92.809,48.564 92.966,48.690 93.327 C 48.791 93.618,49.045 93.873,49.344 93.984 C 49.613 94.085,50.058 94.251,50.333 94.354 C 50.608 94.456,50.833 94.605,50.833 94.685 C 50.833 94.950,52.141 95.659,52.834 95.769 C 53.273 95.840,53.799 96.110,54.298 96.522 C 54.746 96.893,55.325 97.204,55.663 97.256 C 57.640 97.557,58.061 97.683,58.432 98.084 C 58.988 98.684,59.340 98.778,61.844 98.999 C 63.657 99.158,64.150 99.258,64.435 99.521 C 65.747 100.738,68.341 99.857,68.808 98.035 C 68.968 97.412,69.117 97.196,69.506 97.024 C 69.812 96.889,70.041 96.636,70.107 96.361 C 70.165 96.117,70.270 95.842,70.339 95.750 C 70.409 95.658,70.484 95.283,70.506 94.917 C 70.675 92.114,70.200 91.836,64.716 91.529 C 62.438 91.402,62.335 91.380,62.007 90.964 C 61.606 90.453,60.408 90.061,58.792 89.911 C 57.819 89.821,57.654 89.758,57.575 89.444 C 57.448 88.938,56.641 88.520,55.545 88.391 C 54.727 88.294,54.598 88.227,54.441 87.813 C 54.282 87.391,53.075 86.667,52.531 86.667 C 52.444 86.667,52.106 86.362,51.780 85.989 C 51.420 85.579,50.936 85.239,50.551 85.126 L 49.917 84.940 50.417 84.823 C 50.692 84.759,55.004 84.697,60.000 84.686 C 70.503 84.662,69.981 84.739,70.317 83.171 C 70.556 82.058,70.552 79.207,70.311 78.483 C 69.931 77.341,70.818 77.425,58.202 77.333 L 46.750 77.250 46.698 76.342 C 46.670 75.843,46.690 75.262,46.743 75.051 L 46.840 74.667 57.189 74.667 L 67.538 74.667 68.096 74.058 C 69.001 73.070,69.193 68.785,68.370 67.963 L 67.991 67.583 57.321 67.528 L 46.651 67.472 46.700 66.528 L 46.750 65.583 57.254 65.500 C 69.943 65.399,68.820 65.799,68.829 61.386 C 68.837 57.873,69.908 58.167,57.084 58.167 L 46.651 58.167 46.700 57.125 L 46.750 56.083 57.966 56.040 C 70.749 55.992,69.815 56.105,70.269 54.544 C 70.669 53.165,70.546 50.031,70.065 49.386 C 69.588 48.746,69.310 48.709,64.859 48.686 L 60.969 48.667 61.087 47.095 C 61.303 44.211,60.952 43.953,56.919 44.031 C 53.855 44.090,53.639 44.172,53.414 45.373 C 53.354 45.690,53.126 46.144,52.907 46.380 C 52.681 46.623,52.460 47.124,52.398 47.530 C 52.212 48.748,52.884 48.667,42.993 48.667 C 33.694 48.667,33.500 48.656,33.500 48.169 C 33.500 47.742,33.062 46.759,32.760 46.508 C 32.617 46.389,32.496 46.133,32.492 45.938 C 32.479 45.363,31.949 44.442,31.500 44.215 C 31.093 44.010,26.499 43.932,25.777 44.118 M31.574 45.223 C 31.846 45.579,32.104 46.278,32.290 47.163 L 32.580 48.546 33.304 48.856 C 33.980 49.146,34.619 49.167,42.926 49.167 C 53.399 49.167,53.205 49.195,53.391 47.621 C 53.511 46.607,53.969 45.365,54.370 44.963 C 54.813 44.520,59.656 44.516,60.025 44.958 C 60.486 45.510,60.667 46.185,60.667 47.352 C 60.667 49.275,60.429 49.167,64.631 49.168 C 69.875 49.169,70.000 49.238,70.000 52.114 C 70.000 55.688,70.710 55.500,57.236 55.500 L 46.699 55.500 46.516 56.025 C 46.254 56.777,46.291 57.865,46.593 58.296 L 46.852 58.667 57.167 58.667 L 67.481 58.667 67.949 59.069 C 68.619 59.645,68.673 63.076,68.025 63.938 C 67.478 64.667,67.480 64.667,56.473 64.667 L 46.825 64.667 46.629 65.125 C 46.373 65.725,46.395 67.423,46.664 67.746 C 46.848 67.968,48.167 68.000,57.263 68.000 L 67.652 68.000 68.076 68.424 C 68.916 69.265,68.622 72.988,67.676 73.495 C 67.466 73.607,63.812 73.667,57.090 73.667 L 46.825 73.667 46.650 74.125 C 46.312 75.011,46.266 76.721,46.566 77.300 L 46.842 77.833 57.992 77.833 C 70.202 77.833,69.462 77.774,69.847 78.787 C 70.130 79.530,70.025 82.346,69.686 83.091 C 69.207 84.147,69.012 84.167,58.830 84.167 L 50.019 84.167 49.753 84.542 C 49.501 84.897,49.510 84.934,49.926 85.250 C 50.167 85.433,50.633 85.833,50.961 86.137 C 51.289 86.442,51.980 86.904,52.497 87.165 C 53.014 87.426,53.540 87.764,53.665 87.915 C 53.933 88.237,55.049 88.833,55.385 88.833 C 55.512 88.833,55.928 89.059,56.309 89.335 C 57.094 89.903,57.943 90.256,58.917 90.417 C 59.283 90.478,59.996 90.745,60.500 91.009 C 61.539 91.554,62.276 91.739,64.417 91.992 C 65.985 92.178,67.879 92.587,68.373 92.848 C 68.532 92.931,68.806 93.000,68.983 93.000 C 70.358 93.000,70.445 94.963,69.134 96.378 C 68.908 96.622,68.630 97.133,68.515 97.515 C 68.138 98.773,66.654 99.457,65.209 99.039 C 64.865 98.939,63.983 98.806,63.250 98.744 C 61.553 98.599,60.390 98.302,59.441 97.772 C 59.028 97.541,58.403 97.303,58.053 97.243 C 56.840 97.035,55.833 96.683,55.293 96.280 C 54.994 96.058,54.225 95.707,53.583 95.501 C 52.942 95.295,52.192 94.922,51.917 94.674 C 51.642 94.425,51.042 94.083,50.583 93.915 C 50.125 93.747,49.559 93.405,49.325 93.156 C 49.092 92.907,48.639 92.563,48.320 92.392 C 48.001 92.221,47.467 91.800,47.134 91.457 C 46.800 91.114,46.448 90.833,46.351 90.833 C 46.254 90.833,45.601 90.271,44.900 89.583 C 43.016 87.735,42.837 87.758,40.350 90.173 C 39.246 91.244,38.152 92.150,37.729 92.343 C 37.330 92.525,36.887 92.850,36.746 93.067 C 36.604 93.283,36.033 93.664,35.477 93.914 C 34.921 94.163,34.319 94.514,34.140 94.693 C 33.961 94.872,33.237 95.213,32.532 95.450 C 31.827 95.686,31.025 96.049,30.750 96.254 C 30.237 96.638,28.953 97.053,27.722 97.232 C 27.095 97.323,26.046 97.760,25.833 98.018 C 25.686 98.197,23.293 98.638,21.917 98.741 C 21.183 98.795,20.246 98.910,19.833 98.996 C 16.778 99.633,16.675 99.643,16.321 99.356 C 15.490 98.683,15.605 96.331,16.544 94.791 C 17.897 92.574,17.614 92.710,22.167 92.094 C 24.889 91.727,25.653 91.537,26.494 91.020 C 26.923 90.756,27.531 90.486,27.845 90.421 C 29.033 90.175,29.888 89.809,30.201 89.411 C 30.379 89.185,30.612 88.997,30.720 88.994 C 30.828 88.991,31.217 88.844,31.583 88.667 C 31.950 88.490,32.331 88.342,32.430 88.339 C 32.529 88.336,32.709 88.150,32.829 87.925 C 32.949 87.701,33.327 87.405,33.669 87.269 C 34.011 87.132,34.551 86.715,34.869 86.343 C 35.188 85.971,35.497 85.667,35.556 85.667 C 35.758 85.667,36.333 85.093,36.333 84.892 C 36.333 84.171,36.278 84.167,27.084 84.167 C 17.412 84.167,16.896 84.123,16.281 83.261 C 15.720 82.474,15.731 78.862,16.296 78.296 L 16.676 77.917 27.379 77.815 C 40.522 77.690,39.485 77.889,39.285 75.523 C 39.113 73.500,40.142 73.667,27.825 73.667 L 18.196 73.667 17.765 73.154 C 17.354 72.666,17.333 72.546,17.333 70.683 C 17.333 67.707,16.061 68.022,28.338 67.964 C 39.944 67.910,39.333 67.982,39.333 66.669 C 39.333 64.628,39.562 64.667,27.618 64.667 L 18.347 64.667 17.923 64.210 C 17.385 63.629,17.288 63.084,17.359 61.043 C 17.448 58.498,16.207 58.765,28.421 58.667 C 40.178 58.572,39.333 58.687,39.333 57.178 C 39.333 55.437,40.379 55.598,28.305 55.483 C 16.829 55.374,16.838 55.375,16.289 54.606 C 15.667 53.734,15.729 50.362,16.379 49.712 L 16.841 49.250 20.817 49.193 C 25.467 49.127,25.107 49.310,25.210 46.959 C 25.308 44.712,25.376 44.667,28.604 44.667 L 31.150 44.667 31.574 45.223 M77.452 45.619 C 77.197 45.658,76.728 45.950,76.411 46.267 L 75.833 46.844 75.833 71.397 C 75.833 98.020,75.789 96.649,76.677 97.287 C 76.833 97.399,77.077 97.783,77.220 98.140 C 77.485 98.802,78.227 99.159,79.365 99.171 C 79.577 99.173,80.193 99.323,80.734 99.504 C 81.782 99.855,128.000 100.041,128.000 99.695 C 128.000 99.619,128.175 99.463,128.388 99.348 C 129.399 98.808,129.334 100.609,129.331 73.391 C 129.329 45.103,129.416 46.705,127.845 45.892 C 127.284 45.601,79.262 45.341,77.452 45.619 M126.886 46.191 C 127.462 46.494,128.394 47.344,128.667 47.817 C 129.124 48.609,129.126 97.506,128.669 98.246 C 128.482 98.548,128.162 98.840,127.956 98.895 C 127.309 99.069,82.565 99.007,80.425 98.830 C 78.447 98.666,77.500 98.276,77.500 97.626 C 77.500 97.547,77.331 97.130,77.125 96.699 L 76.750 95.917 76.706 72.035 C 76.657 46.066,76.635 46.774,77.498 46.311 C 78.209 45.930,126.166 45.813,126.886 46.191 M84.364 52.786 L 84.000 53.239 84.000 72.297 C 84.000 91.354,84.000 91.355,84.354 92.177 L 84.708 93.000 103.154 93.000 L 121.600 93.000 121.800 92.447 C 122.108 91.594,122.077 53.032,121.768 52.625 C 121.559 52.350,120.475 52.333,103.138 52.333 L 84.729 52.333 84.364 52.786 M121.629 72.083 C 121.654 82.625,121.634 91.419,121.584 91.625 L 121.494 92.000 103.280 92.000 C 89.336 92.000,85.020 91.953,84.867 91.800 C 84.569 91.502,84.577 53.064,84.875 52.943 C 84.990 52.897,93.296 52.872,103.333 52.888 L 121.583 52.917 121.629 72.083 M107.371 53.951 C 106.532 54.495,106.320 54.995,106.186 56.750 L 106.083 58.083 96.583 58.172 C 84.571 58.285,85.331 58.063,85.336 61.450 C 85.341 64.941,85.900 65.327,90.955 65.331 L 94.494 65.333 94.602 65.764 C 94.824 66.648,94.567 68.268,94.109 68.868 C 93.606 69.527,93.438 70.295,93.158 73.215 C 92.961 75.266,92.933 75.367,92.424 75.882 C 91.889 76.423,91.827 76.643,91.408 79.465 C 91.333 79.967,91.180 80.259,90.893 80.448 C 90.427 80.753,90.000 81.655,90.000 82.333 C 90.000 83.111,89.802 83.833,89.588 83.833 C 89.123 83.833,88.342 85.357,88.336 86.276 C 88.334 86.484,88.086 86.833,87.744 87.109 C 86.799 87.869,86.288 90.097,86.914 90.724 C 87.257 91.067,89.284 91.230,91.884 91.125 C 94.724 91.009,95.239 90.710,95.749 88.877 C 96.001 87.976,96.176 87.640,96.466 87.508 C 96.923 87.299,97.303 86.458,97.508 85.202 C 97.607 84.592,97.769 84.210,97.994 84.052 C 98.586 83.638,99.152 81.737,99.163 80.125 C 99.165 79.866,99.259 79.667,99.380 79.667 C 100.022 79.667,100.439 78.440,100.665 75.879 C 100.760 74.808,100.886 74.257,101.079 74.064 C 101.842 73.301,101.952 72.701,102.255 67.656 L 102.361 65.896 102.889 65.692 C 103.892 65.305,105.462 65.247,105.835 65.585 C 106.619 66.294,106.174 87.147,105.369 87.407 C 104.508 87.685,104.039 89.888,104.701 90.549 C 105.205 91.053,107.686 91.277,110.582 91.080 C 113.007 90.914,113.121 90.812,113.326 88.603 C 113.460 87.160,113.534 86.900,113.921 86.496 C 114.707 85.675,114.831 84.050,114.834 74.500 C 114.839 64.202,114.572 65.333,116.996 65.333 L 118.953 65.333 119.732 64.648 C 120.843 63.670,121.000 63.279,121.000 61.492 C 121.000 58.746,120.495 58.327,117.000 58.174 L 114.917 58.083 114.833 56.417 C 114.695 53.649,114.485 53.500,110.708 53.500 C 108.119 53.500,108.053 53.509,107.371 53.951 M113.039 54.198 C 113.967 54.476,114.215 54.946,114.301 56.591 C 114.404 58.545,114.505 58.623,117.038 58.695 C 119.661 58.769,119.863 58.940,119.970 61.190 C 120.096 63.816,119.426 64.500,116.729 64.500 L 115.061 64.500 114.709 65.126 C 114.367 65.736,114.356 65.976,114.287 74.418 C 114.219 82.821,114.205 83.119,113.845 84.250 C 113.640 84.892,113.298 86.364,113.084 87.522 C 112.512 90.614,112.222 90.833,108.713 90.833 C 105.276 90.833,104.001 89.933,105.483 88.552 C 105.816 88.242,105.952 87.662,106.592 83.833 C 106.723 83.054,106.902 82.079,106.991 81.667 C 107.081 81.248,107.155 77.555,107.159 73.303 L 107.167 65.689 106.441 65.094 C 105.696 64.484,103.704 64.202,103.417 64.667 C 103.360 64.758,103.139 64.833,102.926 64.833 C 102.238 64.833,102.032 65.435,101.838 68.010 C 101.676 70.170,101.332 71.980,101.000 72.417 C 100.773 72.716,100.365 74.393,100.250 75.500 C 100.127 76.679,99.764 77.938,99.433 78.333 C 99.180 78.635,98.668 80.232,98.664 80.727 C 98.661 81.222,98.191 82.528,97.900 82.851 C 97.643 83.136,97.000 84.833,97.000 85.227 C 97.000 85.534,96.691 86.112,96.140 86.835 C 95.897 87.155,95.613 87.733,95.510 88.119 C 94.968 90.158,93.739 90.833,90.572 90.833 C 87.076 90.833,86.098 89.905,87.737 88.143 C 88.210 87.635,88.833 86.527,88.833 86.195 C 88.833 85.952,89.484 84.954,89.702 84.861 C 89.774 84.831,89.834 84.718,89.834 84.611 C 89.835 84.504,89.937 84.222,90.061 83.984 C 90.185 83.747,90.341 83.260,90.408 82.903 C 90.475 82.546,90.732 81.953,90.979 81.585 C 91.515 80.788,91.770 80.151,91.916 79.250 C 92.058 78.367,92.472 77.145,92.735 76.833 C 93.105 76.394,93.321 75.622,93.505 74.083 C 93.687 72.558,94.087 70.900,94.354 70.566 C 94.884 69.901,95.182 65.835,94.761 65.021 L 94.491 64.500 91.285 64.500 C 86.564 64.500,85.803 63.999,86.069 61.063 C 86.294 58.578,85.443 58.768,96.833 58.665 C 107.714 58.566,107.163 58.644,107.165 57.192 C 107.167 55.866,107.575 54.634,108.126 54.293 C 108.684 53.947,111.987 53.883,113.039 54.198 M137.802 134.703 C 137.556 134.958,137.412 135.167,137.482 135.167 C 137.640 135.167,138.416 134.352,138.320 134.287 C 138.282 134.261,138.049 134.448,137.802 134.703 M134.167 137.692 C 134.167 138.041,134.176 138.043,134.500 137.750 C 134.683 137.584,134.833 137.422,134.833 137.391 C 134.833 137.359,134.683 137.333,134.500 137.333 C 134.270 137.333,134.167 137.444,134.167 137.692 M126.802 142.703 C 126.556 142.958,126.412 143.167,126.482 143.167 C 126.640 143.167,127.416 142.352,127.320 142.287 C 127.282 142.261,127.049 142.448,126.802 142.703 " stroke="none" fill="#c2a104" fill-rule="evenodd"></path></g></svg>